<svg width="96" height="96" viewBox="0 0 96 96" fill="none" xmlns="http://www.w3.org/2000/svg">
<g clip-path="url(#clip0_4943_1250)">
<path fill-rule="evenodd" clip-rule="evenodd" d="M28.7999 68.7938H67.1999C74.2686 68.7938 80.0062 74.5313 80.0062 81.6C80.0062 88.6688 74.2686 94.4063 67.1999 94.4063H28.7999C21.7312 94.4063 15.9937 88.6688 15.9937 81.6C15.9937 74.5313 21.7312 68.7938 28.7999 68.7938Z" fill="#FFC7B5"/>
<path fill-rule="evenodd" clip-rule="evenodd" d="M67.1999 68.7938H62.3999C69.4687 68.7938 75.2062 74.5313 75.2062 81.6C75.2062 88.6688 69.4687 94.4063 62.3999 94.4063H67.1999C74.2687 94.4063 80.0062 88.6688 80.0062 81.6C80.0062 74.5313 74.2687 68.7938 67.1999 68.7938Z" fill="#FFDCD2"/>
<path fill-rule="evenodd" clip-rule="evenodd" d="M8.00615 35.1937H88.0124C91.5561 35.1937 94.4061 38.0625 94.4061 41.5875V54.3937C94.4061 57.9375 91.5374 60.7875 88.0124 60.7875H8.00615C4.4624 60.7875 1.6124 57.9187 1.6124 54.3937V41.5875C1.59365 38.0625 4.4624 35.1937 8.00615 35.1937Z" fill="#FFEAE3"/>
<path fill-rule="evenodd" clip-rule="evenodd" d="M87.9938 35.1937H83.1938C86.7376 35.1937 89.5876 38.0625 89.5876 41.5875V54.3937C89.5876 57.9375 86.7188 60.7875 83.1938 60.7875H87.9938C91.5376 60.7875 94.3876 57.9187 94.3876 54.3937V41.5875C94.4063 38.0625 91.5376 35.1937 87.9938 35.1937Z" fill="#FFDCD2"/>
<path fill-rule="evenodd" clip-rule="evenodd" d="M8.00615 1.59375H88.0124C91.5561 1.59375 94.4061 4.4625 94.4061 7.9875V20.7938C94.4061 24.3375 91.5374 27.1875 88.0124 27.1875H8.00615C4.4624 27.1875 1.6124 24.3188 1.6124 20.7938V8.00625C1.59365 4.4625 4.4624 1.59375 8.00615 1.59375Z" fill="#FFEAE3"/>
<path fill-rule="evenodd" clip-rule="evenodd" d="M87.9938 1.59375H83.1938C86.7376 1.59375 89.5876 4.4625 89.5876 7.9875V20.7938C89.5876 24.3375 86.7188 27.1875 83.1938 27.1875H87.9938C91.5376 27.1875 94.3876 24.3188 94.3876 20.7938V8.00625C94.4063 4.4625 91.5376 1.59375 87.9938 1.59375Z" fill="#FFDCD2"/>
<path fill-rule="evenodd" clip-rule="evenodd" d="M27.2061 44.7937V51.1875C27.2061 52.95 25.7623 54.375 23.9998 54.3937H11.1936C9.43106 54.3937 8.00605 52.95 7.9873 51.1875V44.7937C7.9873 43.875 8.38106 43.0125 9.07481 42.4125L15.6561 47.3625C16.7998 48.2062 18.3748 48.2062 19.5373 47.3625L26.1186 42.4125C26.8123 43.0125 27.2061 43.8937 27.2061 44.7937Z" fill="#FFC7B5"/>
<path fill-rule="evenodd" clip-rule="evenodd" d="M26.1189 42.4125L19.5377 47.3625C18.3939 48.2063 16.8189 48.2063 15.6564 47.3625L9.0752 42.4125C9.65645 41.8875 10.4064 41.5875 11.1939 41.5875H24.0002C24.7877 41.5875 25.5377 41.8875 26.1189 42.4125Z" fill="#FFEAE3"/>
<path d="M17.6062 14.4C19.3769 14.4 20.8124 12.9645 20.8124 11.1937C20.8124 9.42298 19.3769 7.98749 17.6062 7.98749C15.8354 7.98749 14.3999 9.42298 14.3999 11.1937C14.3999 12.9645 15.8354 14.4 17.6062 14.4Z" fill="#FFC7B5"/>
<path fill-rule="evenodd" clip-rule="evenodd" d="M17.6062 14.4C20.2499 14.4 22.4062 16.5563 22.4062 19.2C22.4062 20.0813 21.6937 20.7938 20.8124 20.7938H14.3999C13.5187 20.7938 12.8062 20.0813 12.8062 19.2C12.8062 16.5563 14.9437 14.4 17.6062 14.4Z" fill="#FFC7B5"/>
<path fill-rule="evenodd" clip-rule="evenodd" d="M8.00625 27.2063H12.8063C9.2625 27.2063 6.4125 24.3375 6.4125 20.8125V8.00627C6.4125 4.46252 9.28125 1.61252 12.8063 1.61252H8.00625C4.4625 1.59377 1.59375 4.46252 1.59375 8.00627V20.8125C1.59375 24.3375 4.4625 27.2063 8.00625 27.2063Z" fill="white"/>
<path fill-rule="evenodd" clip-rule="evenodd" d="M8.00615 60.8063H12.8061C9.2624 60.8063 6.4124 57.9375 6.4124 54.4125V41.6063C6.4124 38.0625 9.28115 35.2125 12.8061 35.2125H8.00615C4.4624 35.2125 1.6124 38.0813 1.6124 41.6063V54.4125C1.59365 57.9375 4.4624 60.8063 8.00615 60.8063Z" fill="white"/>
<path fill-rule="evenodd" clip-rule="evenodd" d="M33.5999 68.7938H28.7999C21.7312 68.7938 15.9937 74.5313 15.9937 81.6C15.9937 88.6688 21.7312 94.4063 28.7999 94.4063H33.5999C26.5311 94.4063 20.7937 88.6688 20.7937 81.6C20.7937 74.5313 26.5311 68.7938 33.5999 68.7938Z" fill="white"/>
<path fill-rule="evenodd" clip-rule="evenodd" d="M21.0187 69.4875L22.7437 72.1875C21.1687 73.2 19.8749 74.6062 18.9562 76.2375C18.0749 77.8875 17.6062 79.725 17.5874 81.6H14.3999C14.4187 79.1812 15.0187 76.8187 16.1624 74.7C17.3249 72.5812 18.9937 70.8 21.0187 69.4875Z" fill="white"/>
<path fill-rule="evenodd" clip-rule="evenodd" d="M17.5876 77.025C16.7063 77.025 15.9751 76.3125 15.9751 75.4312C15.9751 74.55 16.6876 73.8187 17.5688 73.8187H17.5876C18.4688 73.8187 19.1813 74.5312 19.1813 75.4125C19.1813 76.2937 18.4688 77.025 17.5876 77.025Z" fill="#514B8F"/>
<path fill-rule="evenodd" clip-rule="evenodd" d="M14.3999 81.6C14.3999 89.55 20.8499 96 28.7999 96H67.1999C75.1499 96 81.5999 89.55 81.5999 81.6C81.5999 73.65 75.1499 67.2 67.1999 67.2H28.7999C26.0437 67.2188 23.3437 68.0063 21.0187 69.4875C20.6249 69.7125 20.3624 70.0875 20.2874 70.5375C20.2124 70.9688 20.3249 71.4375 20.6062 71.775C21.1312 72.4125 22.0499 72.5813 22.7624 72.1875C24.5624 71.0438 26.6624 70.425 28.7999 70.4063H67.1999C73.3874 70.4063 78.3937 75.4125 78.3937 81.6C78.3937 87.7875 73.3874 92.7938 67.1999 92.7938H28.7999C22.6124 92.7938 17.6062 87.7688 17.6062 81.6C17.6062 80.7188 16.8937 80.0063 16.0124 80.0063C15.1312 80.0063 14.3999 80.7188 14.3999 81.6Z" fill="#514B8F"/>
<path d="M87.9937 33.6H8.00625C3.58125 33.6 0 37.1812 0 41.6062V54.4125C0 58.8375 3.58125 62.4 8.00625 62.4187H88.0125C92.4375 62.4187 96 58.8375 96.0187 54.4125V41.6062C96 37.1812 92.4187 33.6 87.9937 33.6ZM92.7937 54.3937C92.7937 57.0375 90.6375 59.1937 87.9937 59.1937H8.00625C5.3625 59.1937 3.20625 57.0375 3.20625 54.3937V41.5875C3.20625 38.9437 5.3625 36.7875 8.00625 36.7875H88.0125C90.6562 36.7875 92.8125 38.9437 92.8125 41.5875V54.3937H92.7937Z" fill="#514B8F"/>
<path d="M87.9937 0H8.00625C3.58125 0 0 3.58125 0 8.00625V20.8125C0 25.2375 3.58125 28.8 8.00625 28.8187H88.0125C92.4375 28.8187 96 25.2375 96.0187 20.8125V8.00625C96 3.58125 92.4187 0 87.9937 0ZM92.7937 20.7938C92.7937 23.4375 90.6375 25.5938 87.9937 25.5938H8.00625C5.3625 25.5938 3.20625 23.4375 3.20625 20.7938V8.00625C3.20625 5.3625 5.3625 3.20625 8.00625 3.20625H88.0125C90.6562 3.20625 92.8125 5.3625 92.8125 8.00625V20.7938H92.7937Z" fill="#514B8F"/>
<path d="M23.9998 39.9938H11.1936C8.54981 39.9938 6.39355 42.15 6.39355 44.7938V51.1875C6.39355 53.8313 8.54981 55.9875 11.1936 55.9875H23.9998C26.6436 55.9875 28.7998 53.8313 28.7998 51.1875V44.7938C28.7998 42.15 26.6436 39.9938 23.9998 39.9938ZM22.4061 43.2L18.5811 46.0875C17.9998 46.5188 17.2123 46.5188 16.6123 46.1063L12.7873 43.2188H22.4061V43.2ZM23.9998 52.8H11.1936C10.3123 52.8 9.59981 52.0875 9.59981 51.2063V44.8125L14.7186 48.6563C16.4436 49.9313 18.7873 49.9313 20.4936 48.6375L25.5936 44.8125V51.2063C25.5936 52.0875 24.8811 52.8 23.9998 52.8Z" fill="#514B8F"/>
<path d="M21.4124 14.0812C22.0499 13.2562 22.4062 12.2437 22.4062 11.1937C22.4062 8.54999 20.2499 6.39374 17.6062 6.39374C14.9624 6.39374 12.8062 8.54999 12.8062 11.1937C12.8062 12.2437 13.1624 13.2562 13.7999 14.0812C12.1687 15.2812 11.2124 17.175 11.2124 19.2C11.2124 20.9625 12.6374 22.4062 14.4187 22.4062H20.8124C22.5749 22.4062 24.0187 20.9812 24.0187 19.2C23.9999 17.175 23.0249 15.2812 21.4124 14.0812ZM15.9937 11.1937C15.9937 10.3125 16.7062 9.59999 17.5874 9.59999C18.4687 9.59999 19.1812 10.3125 19.1812 11.1937C19.1812 12.075 18.4687 12.7875 17.5874 12.7875C16.7249 12.8062 15.9937 12.075 15.9937 11.1937ZM14.3999 19.2C14.3999 17.4375 15.8249 15.9937 17.6062 15.9937C19.3874 15.9937 20.8124 17.4187 20.8124 19.2H14.3999Z" fill="#514B8F"/>
<path fill-rule="evenodd" clip-rule="evenodd" d="M35.1938 46.4062H43.2001C44.0813 46.4062 44.7938 45.6937 44.7938 44.8125C44.7938 43.9313 44.0813 43.2188 43.2001 43.2188H35.1938C34.3126 43.2188 33.6001 43.9313 33.6001 44.8125C33.6001 45.675 34.3126 46.4062 35.1938 46.4062Z" fill="#514B8F"/>
<path fill-rule="evenodd" clip-rule="evenodd" d="M84.8064 49.5938H35.1938C34.3126 49.5938 33.6001 50.3063 33.6001 51.1875C33.6001 52.0687 34.3126 52.7812 35.1938 52.7812H84.7876C85.6689 52.7812 86.3814 52.0687 86.3814 51.1875C86.3814 50.3063 85.6876 49.5938 84.8064 49.5938Z" fill="#514B8F"/>
<path fill-rule="evenodd" clip-rule="evenodd" d="M35.1938 12.8063H43.2001C44.0813 12.8063 44.7938 12.0938 44.7938 11.2125C44.7938 10.3313 44.0813 9.61877 43.2001 9.61877H35.1938C34.3126 9.61877 33.6001 10.3313 33.6001 11.2125C33.6001 12.0938 34.3126 12.8063 35.1938 12.8063Z" fill="#514B8F"/>
<path fill-rule="evenodd" clip-rule="evenodd" d="M84.8064 15.9938H35.1938C34.3126 15.9938 33.6001 16.7063 33.6001 17.5875C33.6001 18.4688 34.3126 19.1813 35.1938 19.1813H84.7876C85.6689 19.1813 86.3814 18.4688 86.3814 17.5875C86.4001 16.725 85.6876 15.9938 84.8064 15.9938Z" fill="#514B8F"/>
<path fill-rule="evenodd" clip-rule="evenodd" d="M43.2001 87.9937C43.5376 87.9937 43.8751 87.8812 44.1564 87.675L56.9626 78.075C57.6751 77.55 57.8064 76.5375 57.2814 75.8437C56.7564 75.1312 55.7439 75 55.0501 75.525L43.3689 84.3L41.1564 82.0875C40.5376 81.4875 39.5251 81.4875 38.9064 82.1062C38.2876 82.725 38.2876 83.7187 38.8876 84.3562L42.0939 87.5625C42.3751 87.825 42.7689 87.9937 43.2001 87.9937Z" fill="#514B8F"/>
</g>
<defs>
<clipPath id="clip0_4943_1250">
<rect width="96" height="96" fill="white"/>
</clipPath>
</defs>
</svg>
