<svg width="96" height="96" viewBox="0 0 96 96" fill="none" xmlns="http://www.w3.org/2000/svg">
<path d="M94.4001 14.4V20.8H1.6001V14.4C1.6001 10.8654 4.46547 8 8.0001 8H88.0001C91.5347 8 94.4001 10.8654 94.4001 14.4Z" fill="#FFDCD2"/>
<path d="M88.0002 8H83.2002C86.7348 8 89.6002 10.8654 89.6002 14.4V20.8H94.4002V14.4C94.4002 10.8654 91.5348 8 88.0002 8Z" fill="#FFC7B5"/>
<path d="M94.4001 20.8V81.6C94.4001 85.1346 91.5347 88 88.0001 88H8.0001C4.46547 88 1.6001 85.1346 1.6001 81.6V20.8H94.4001Z" fill="#FFEAE3"/>
<path d="M89.6002 20.8V81.6C89.6002 85.1346 86.7348 88 83.2002 88H88.0002C91.5348 88 94.4002 85.1346 94.4002 81.6V20.8H89.6002Z" fill="#FFC7B5"/>
<path d="M87.9999 84.8V91.2C87.9946 92.9651 86.565 94.3947 84.7999 94.4H78.3999V91.2C78.3999 87.6654 81.2653 84.8 84.7999 84.8H87.9999Z" fill="#FFEAE3"/>
<path d="M17.6 91.2V94.4H11.2C9.43488 94.3947 8.00527 92.9651 8 91.2V84.8H11.2C14.7346 84.8 17.6 87.6654 17.6 91.2Z" fill="#FFEAE3"/>
<path d="M17.6 46.4V49.6C17.6 53.1346 14.7346 56 11.2 56H8V49.6C8.00527 47.8348 9.43488 46.4052 11.2 46.4H17.6Z" fill="#FFEAE3"/>
<path d="M88 56V84.8H84.8C81.2654 84.8 78.4 87.6653 78.4 91.2V94.4H17.6V91.2C17.6 87.6653 14.7346 84.8 11.2 84.8H8V56H11.2C14.7346 56 17.6 53.1346 17.6 49.6V46.4H78.4V49.6C78.4 53.1346 81.2654 56 84.8 56H88Z" fill="#FFEAE3"/>
<path d="M84.8001 56C81.2655 56 78.4001 53.1346 78.4001 49.6V46.4H73.6001V49.6C73.6001 53.1346 76.4655 56 80.0001 56H83.2001V84.8H80.0001C76.4655 84.8 73.6001 87.6653 73.6001 91.2V94.4H78.4001V91.2C78.4001 87.6653 81.2655 84.8 84.8001 84.8H88.0001V56H84.8001Z" fill="#FFC7B5"/>
<path d="M84.8002 46.4V41.6C84.7949 39.8348 83.3653 38.4052 81.6002 38.4H14.4002C12.6351 38.4052 11.2055 39.8348 11.2002 41.6V46.4H84.8002Z" fill="#FFDCD2"/>
<path d="M81.5999 38.4V33.6C81.5946 31.8348 80.165 30.4052 78.3999 30.4H17.5999C15.8348 30.4052 14.4052 31.8348 14.3999 33.6V38.4H81.5999Z" fill="#FFC7B5"/>
<path d="M88.0004 49.6V56H84.8004C81.2658 56 78.4004 53.1346 78.4004 49.6V46.4H84.8004C86.5655 46.4052 87.9951 47.8348 88.0004 49.6Z" fill="#FFEAE3"/>
<path d="M51.2003 4.79998C51.2003 3.03266 49.7676 1.59998 48.0003 1.59998C46.233 1.59998 44.8003 3.03266 44.8003 4.79998V11.2C44.8003 12.9673 46.233 14.4 48.0003 14.4C49.7676 14.4 51.2003 12.9673 51.2003 11.2V4.79998Z" fill="#FFEAE3"/>
<path d="M35.2003 4.79998C35.2003 3.03266 33.7676 1.59998 32.0003 1.59998C30.233 1.59998 28.8003 3.03266 28.8003 4.79998V11.2C28.8003 12.9673 30.233 14.4 32.0003 14.4C33.7676 14.4 35.2003 12.9673 35.2003 11.2V4.79998Z" fill="#FFEAE3"/>
<path d="M19.2003 4.79998C19.2003 3.03266 17.7676 1.59998 16.0003 1.59998C14.233 1.59998 12.8003 3.03266 12.8003 4.79998V11.2C12.8003 12.9673 14.233 14.4 16.0003 14.4C17.7676 14.4 19.2003 12.9673 19.2003 11.2V4.79998Z" fill="#FFEAE3"/>
<path d="M83.2003 4.79998C83.2003 3.03266 81.7676 1.59998 80.0003 1.59998C78.233 1.59998 76.8003 3.03266 76.8003 4.79998V11.2C76.8003 12.9673 78.233 14.4 80.0003 14.4C81.7676 14.4 83.2003 12.9673 83.2003 11.2V4.79998Z" fill="#FFEAE3"/>
<path d="M67.2003 4.79998C67.2003 3.03266 65.7676 1.59998 64.0003 1.59998C62.233 1.59998 60.8003 3.03266 60.8003 4.79998V11.2C60.8003 12.9673 62.233 14.4 64.0003 14.4C65.7676 14.4 67.2003 12.9673 67.2003 11.2V4.79998Z" fill="#FFEAE3"/>
<path d="M48.0004 88C57.7206 88 65.6004 80.1202 65.6004 70.4C65.6004 60.6798 57.7206 52.8 48.0004 52.8C38.2802 52.8 30.4004 60.6798 30.4004 70.4C30.4004 80.1202 38.2802 88 48.0004 88Z" fill="#FFEAE3"/>
<path d="M48.0001 52.8C47.1969 52.8063 46.395 52.8673 45.6001 52.9824C54.309 54.1715 60.8012 61.6103 60.8012 70.4C60.8012 79.1897 54.309 86.6285 45.6001 87.8176C52.1139 88.7199 58.587 85.914 62.3816 80.5433C66.1762 75.1726 66.6586 68.134 63.6322 62.2958C60.6059 56.4577 54.576 52.7948 48.0001 52.8Z" fill="#FFC7B5"/>
<path d="M19.1999 75.2C21.8509 75.2 23.9999 73.0509 23.9999 70.4C23.9999 67.749 21.8509 65.6 19.1999 65.6C16.5489 65.6 14.3999 67.749 14.3999 70.4C14.3999 73.0509 16.5489 75.2 19.1999 75.2Z" fill="#FFEAE3"/>
<path d="M76.8 75.2C79.451 75.2 81.6 73.0509 81.6 70.4C81.6 67.749 79.451 65.6 76.8 65.6C74.149 65.6 72 67.749 72 70.4C72 73.0509 74.149 75.2 76.8 75.2Z" fill="#FFEAE3"/>
<path d="M8.0001 88V91.2C8.00537 92.9651 9.43498 94.3947 11.2001 94.4H16.0001C14.235 94.3947 12.8054 92.9651 12.8001 91.2V88C9.26548 88 6.4001 85.1346 6.4001 81.6V14.4C6.4001 10.8654 9.26548 8 12.8001 8H8.0001C4.46548 8 1.6001 10.8654 1.6001 14.4V81.6C1.6001 85.1346 4.46548 88 8.0001 88Z" fill="white"/>
<path d="M0 68.8H3.2V81.6H0V68.8Z" fill="white"/>
<path d="M1.6 76.8C2.48366 76.8 3.2 76.0836 3.2 75.2C3.2 74.3163 2.48366 73.6 1.6 73.6C0.716344 73.6 0 74.3163 0 75.2C0 76.0836 0.716344 76.8 1.6 76.8Z" fill="#514B8F"/>
<path d="M88 6.4H84.8V4.8C84.8 2.14903 82.651 2.08e-07 80 2.08e-07C77.349 2.08e-07 75.2 2.14903 75.2 4.8V6.4H68.8V4.8C68.8 2.14903 66.651 0 64 0C61.349 0 59.2 2.14903 59.2 4.8V6.4H52.8V4.8C52.8 2.14903 50.651 0 48 0C45.349 0 43.2 2.14903 43.2 4.8V6.4H36.8V4.8C36.8 2.14903 34.651 0 32 0C29.349 0 27.2 2.14903 27.2 4.8V6.4H20.8V4.8C20.8 2.14903 18.651 0 16 0C13.349 0 11.2 2.14903 11.2 4.8V6.4H8C3.58391 6.40529 0.00528979 9.98392 0 14.4V68.8C0 69.6837 0.716344 70.4 1.6 70.4C2.48366 70.4 3.2 69.6837 3.2 68.8V22.4H92.8V81.6C92.7916 83.6269 91.511 85.43 89.6 86.1056V49.6C89.5916 47.5731 88.311 45.77 86.4 45.0944V41.6C86.3916 39.5731 85.111 37.77 83.2 37.0944V33.6C83.2 30.949 81.051 28.8 78.4 28.8H17.6C14.949 28.8 12.8 30.949 12.8 33.6V37.0944C10.889 37.77 9.6084 39.5731 9.6 41.6V45.0944C7.68904 45.77 6.4084 47.5731 6.4 49.6V86.1056C4.48904 85.43 3.2084 83.6269 3.2 81.6C3.2 80.7163 2.48366 80 1.6 80C0.716344 80 0 80.7163 0 81.6C0.00479726 85.4002 2.67773 88.6745 6.4 89.44V91.2C6.4 93.851 8.54903 96 11.2 96H84.8C87.451 96 89.6 93.851 89.6 91.2V89.44C93.3223 88.6745 95.9952 85.4002 96 81.6V14.4C95.9947 9.98392 92.4161 6.40529 88 6.4ZM76.8 91.2V92.8H19.2V91.2C19.1947 86.7839 15.6161 83.2053 11.2 83.2H9.6V57.6H11.2C15.6161 57.5947 19.1947 54.0161 19.2 49.6V48H76.8V49.6C76.8053 54.0161 80.3839 57.5947 84.8 57.6H86.4V83.2H84.8C80.3839 83.2053 76.8053 86.7839 76.8 91.2ZM84.8 48C85.6837 48 86.4 48.7163 86.4 49.6V54.4H84.8C82.149 54.4 80 52.251 80 49.6V48H84.8ZM17.6 32H78.4C79.2837 32 80 32.7163 80 33.6V36.8H16V33.6C16 32.7163 16.7163 32 17.6 32ZM14.4 40H81.6C82.4837 40 83.2 40.7163 83.2 41.6V44.8H12.8V41.6C12.8 40.7163 13.5163 40 14.4 40ZM11.2 48H16V49.6C16 52.251 13.851 54.4 11.2 54.4H9.6V49.6C9.6 48.7163 10.3163 48 11.2 48ZM9.6 91.2V86.4H11.2C13.851 86.4 16 88.549 16 91.2V92.8H11.2C10.3163 92.8 9.6 92.0837 9.6 91.2ZM84.8 92.8H80V91.2C80 88.549 82.149 86.4 84.8 86.4H86.4V91.2C86.4 92.0837 85.6837 92.8 84.8 92.8ZM78.4 4.8C78.4 3.91634 79.1163 3.2 80 3.2C80.8837 3.2 81.6 3.91634 81.6 4.8V11.2C81.6 12.0837 80.8837 12.8 80 12.8C79.1163 12.8 78.4 12.0837 78.4 11.2V4.8ZM62.4 4.8C62.4 3.91634 63.1163 3.2 64 3.2C64.8837 3.2 65.6 3.91634 65.6 4.8V11.2C65.6 12.0837 64.8837 12.8 64 12.8C63.1163 12.8 62.4 12.0837 62.4 11.2V4.8ZM46.4 4.8C46.4 3.91634 47.1163 3.2 48 3.2C48.8837 3.2 49.6 3.91634 49.6 4.8V11.2C49.6 12.0837 48.8837 12.8 48 12.8C47.1163 12.8 46.4 12.0837 46.4 11.2V4.8ZM30.4 4.8C30.4 3.91634 31.1163 3.2 32 3.2C32.8837 3.2 33.6 3.91634 33.6 4.8V11.2C33.6 12.0837 32.8837 12.8 32 12.8C31.1163 12.8 30.4 12.0837 30.4 11.2V4.8ZM14.4 4.8C14.4 3.91634 15.1163 3.2 16 3.2C16.8837 3.2 17.6 3.91634 17.6 4.8V11.2C17.6 12.0837 16.8837 12.8 16 12.8C15.1163 12.8 14.4 12.0837 14.4 11.2V4.8ZM3.2 19.2V14.4C3.2 11.749 5.34903 9.6 8 9.6H11.2V11.2C11.2 13.851 13.349 16 16 16C18.651 16 20.8 13.851 20.8 11.2V9.6H27.2V11.2C27.2 13.851 29.349 16 32 16C34.651 16 36.8 13.851 36.8 11.2V9.6H43.2V11.2C43.2 13.851 45.349 16 48 16C50.651 16 52.8 13.851 52.8 11.2V9.6H59.2V11.2C59.2 13.851 61.349 16 64 16C66.651 16 68.8 13.851 68.8 11.2V9.6H75.2V11.2C75.2 13.851 77.349 16 80 16C82.651 16 84.8 13.851 84.8 11.2V9.6H88C90.651 9.6 92.8 11.749 92.8 14.4V19.2H3.2Z" fill="#514B8F"/>
<path d="M47.9998 51.2C37.3959 51.2 28.7998 59.7961 28.7998 70.4C28.7998 81.0039 37.3959 89.6 47.9998 89.6C58.6037 89.6 67.1998 81.0039 67.1998 70.4C67.1883 59.8009 58.5989 51.2115 47.9998 51.2ZM47.9998 86.4C39.1632 86.4 31.9998 79.2366 31.9998 70.4C31.9998 61.5635 39.1632 54.4 47.9998 54.4C56.8364 54.4 63.9998 61.5635 63.9998 70.4C63.9901 79.2325 56.8323 86.3903 47.9998 86.4Z" fill="#514B8F"/>
<path d="M19.1998 64C15.6652 64 12.7998 66.8654 12.7998 70.4C12.7998 73.9346 15.6652 76.8 19.1998 76.8C22.7344 76.8 25.5998 73.9346 25.5998 70.4C25.5998 66.8654 22.7344 64 19.1998 64ZM19.1998 73.6C17.4325 73.6 15.9998 72.1673 15.9998 70.4C15.9998 68.6327 17.4325 67.2 19.1998 67.2C20.9671 67.2 22.3998 68.6327 22.3998 70.4C22.3998 72.1673 20.9671 73.6 19.1998 73.6Z" fill="#514B8F"/>
<path d="M76.7999 64C73.2653 64 70.3999 66.8654 70.3999 70.4C70.3999 73.9346 73.2653 76.8 76.7999 76.8C80.3345 76.8 83.1999 73.9346 83.1999 70.4C83.1999 66.8654 80.3345 64 76.7999 64ZM76.7999 73.6C75.0326 73.6 73.5999 72.1673 73.5999 70.4C73.5999 68.6327 75.0326 67.2 76.7999 67.2C78.5672 67.2 79.9999 68.6327 79.9999 70.4C79.9999 72.1673 78.5672 73.6 76.7999 73.6Z" fill="#514B8F"/>
<path d="M48.0001 62.4C49.7674 62.4 51.2001 63.8327 51.2001 65.6C51.2001 66.4836 51.9165 67.2 52.8001 67.2C53.6838 67.2 54.4001 66.4836 54.4001 65.6C54.3892 62.6905 52.4172 60.1545 49.6001 59.4272V59.2C49.6001 58.3163 48.8838 57.6 48.0001 57.6C47.1164 57.6 46.4001 58.3163 46.4001 59.2V59.4272C43.2829 60.2295 41.2497 63.226 41.656 66.4191C42.0624 69.6122 44.7813 72.004 48.0001 72C49.7674 72 51.2001 73.4327 51.2001 75.2C51.2001 76.9673 49.7674 78.4 48.0001 78.4C46.2328 78.4 44.8001 76.9673 44.8001 75.2C44.8001 74.3163 44.0838 73.6 43.2001 73.6C42.3164 73.6 41.6001 74.3163 41.6001 75.2C41.611 78.1094 43.583 80.6454 46.4001 81.3728V81.6C46.4001 82.4836 47.1164 83.2 48.0001 83.2C48.8838 83.2 49.6001 82.4836 49.6001 81.6V81.3728C52.7173 80.5705 54.7505 77.5739 54.3442 74.3809C53.9378 71.1878 51.2189 68.796 48.0001 68.8C46.2328 68.8 44.8001 67.3673 44.8001 65.6C44.8001 63.8327 46.2328 62.4 48.0001 62.4Z" fill="#514B8F"/>
</svg>
