<svg width="160" height="48" viewBox="0 0 160 48" fill="none" xmlns="http://www.w3.org/2000/svg">
<g clip-path="url(#clip0_4931_278)">
<path d="M15.3062 22.3706L14.6133 23.3106H14.4243V23.5612L14.2354 23.8119C14.2354 23.8119 14.2984 23.8119 14.4243 23.8745V26.0051C13.6685 25.0025 12.8496 24.1878 11.8418 23.6865C10.834 23.1852 9.7632 22.9346 8.56642 22.9346C6.4878 22.9346 4.66114 23.6865 3.21241 25.1904C1.70068 26.6944 1.00781 28.5116 1.00781 30.5795C1.00781 32.71 1.76367 34.5899 3.21241 36.0312C4.66114 37.5351 6.4878 38.2871 8.56642 38.2871C9.7632 38.2871 10.834 38.0364 11.7788 37.5351C12.5977 37.1591 13.3535 36.5325 14.0464 35.8432L13.4795 36.9711L14.4873 37.9111H16.377V23.2479L15.3062 22.3706ZM13.7945 33.7126C13.2905 34.5899 12.5977 35.2792 11.6528 35.8432C10.708 36.3445 9.7632 36.5951 8.6924 36.5951C7.68458 36.5951 6.67677 36.3445 5.79493 35.7805C4.91309 35.2792 4.15723 34.5273 3.65332 33.5873C3.14942 32.6474 2.83448 31.6448 2.83448 30.6421C2.83448 29.5769 3.08643 28.6369 3.65332 27.697C4.15723 26.757 4.91309 26.0677 5.79493 25.5038C6.67677 25.0025 7.68458 24.7518 8.6924 24.7518C10.3301 24.7518 11.7158 25.3158 12.8496 26.4437C13.9834 27.5717 14.5503 29.0129 14.5503 30.7048C14.5503 31.8327 14.2984 32.8354 13.7945 33.7126ZM14.1724 35.7179C14.2354 35.6552 14.3613 35.5299 14.4243 35.4672V35.9685L14.1724 35.7179Z" fill="#F2642E"/>
<path d="M34.2656 16.731L33.0059 17.7336L33.3838 18.1095V26.0051C32.6279 25.0025 31.8091 24.1879 30.8013 23.6866C29.7935 23.1853 28.7227 22.9346 27.5259 22.9346C25.4473 22.9346 23.6206 23.6866 22.1719 25.1905C20.6602 26.6944 19.9673 28.5116 19.9673 30.5795C19.9673 32.7101 20.7231 34.59 22.1719 36.0312C23.6206 37.5351 25.4473 38.2871 27.5259 38.2871C28.7227 38.2871 29.7935 38.0364 30.7383 37.5351C31.7461 37.0338 32.6279 36.3445 33.3838 35.3419V36.0312L32.376 36.9712L33.3838 37.9111H35.2735V17.6082L34.2656 16.731ZM32.7539 33.7127C32.25 34.59 31.5571 35.2793 30.6123 35.8432C29.6675 36.3445 28.7227 36.5952 27.6519 36.5952C26.6441 36.5952 25.6362 36.3445 24.7544 35.7806C23.8726 35.2793 23.1167 34.5273 22.6128 33.5874C22.1089 32.6474 21.7939 31.6448 21.7939 30.6422C21.7939 29.5769 22.0459 28.637 22.6128 27.697C23.1167 26.7571 23.8726 26.0678 24.7544 25.5038C25.6362 25.0025 26.6441 24.7518 27.6519 24.7518C29.2896 24.7518 30.6753 25.3158 31.8091 26.4437C32.9429 27.5717 33.5098 29.0129 33.5098 30.7048C33.5098 31.8328 33.2578 32.8354 32.7539 33.7127Z" fill="#F2642E"/>
<path d="M51.0205 22.3706L49.5718 23.3106L49.7607 23.7492L45.0996 34.026L40.1865 23.3106L39.1787 22.3706L38.7378 23.0599L38.8008 23.3106H38.1709L44.0918 36.1565L43.9658 37.0338L44.9107 37.9737H45.2886L52.0283 23.3106L51.0205 22.3706Z" fill="#F2642E"/>
<path d="M76.5938 0L74.9561 1.1906L75.271 1.56658L60.4688 34.0261L55.4927 23.3107L54.5479 22.3708L53.792 23.248L53.855 23.3107H53.4771L59.272 35.906V35.8433V37.0339L60.2798 37.9739H60.5947L77.5386 0.939948L76.5938 0Z" fill="#00662F"/>
<path d="M83.9004 22.3706L83.5225 23.3106H82.9556V26.0051C82.1997 25.0025 81.3809 24.1878 80.3731 23.6865C79.3653 23.1852 78.2944 22.9346 77.0977 22.9346C75.0191 22.9346 73.1924 23.6865 71.7437 25.1904C70.2319 26.6944 69.5391 28.5116 69.5391 30.5795C69.5391 32.71 70.2949 34.5899 71.7437 36.0312C73.1924 37.5351 75.0191 38.2871 77.0977 38.2871C78.2944 38.2871 79.3653 38.0364 80.3101 37.5351C81.3179 37.0338 82.1997 36.3445 82.9556 35.3419V36.3445L82.6406 36.2192L82.0108 36.9085L83.0186 37.8484H84.9082V23.1852L83.9004 22.3706ZM82.3887 33.7126C81.8848 34.5899 81.1919 35.2792 80.2471 35.8432C79.3023 36.3445 78.3574 36.5951 77.2866 36.5951C76.2788 36.5951 75.271 36.3445 74.3892 35.7805C73.5073 35.2792 72.7515 34.5273 72.2476 33.5873C71.7437 32.6474 71.4287 31.6448 71.4287 30.6421C71.4287 29.5769 71.6807 28.6369 72.2476 27.697C72.7515 26.757 73.5073 26.0677 74.3892 25.5038C75.271 25.0025 76.2788 24.7518 77.2866 24.7518C78.9243 24.7518 80.3101 25.3158 81.4439 26.4437C82.5777 27.5717 83.1446 29.0129 83.1446 30.7048C83.1446 31.8327 82.8926 32.8354 82.3887 33.7126Z" fill="#F2642E"/>
<path d="M15.3062 22.3707V37.0339H13.4165V34.5273C12.5977 35.4673 11.7158 36.2192 10.771 36.7205C9.7632 37.2219 8.6924 37.4725 7.5586 37.4725C5.47999 37.4725 3.71631 36.7206 2.20459 35.2166C0.755861 33.6501 0 31.8328 0 29.7023C0 27.5717 0.755861 25.8172 2.20459 24.3132C3.71631 22.8093 5.47999 22.0574 7.5586 22.0574C8.75538 22.0574 9.88917 22.308 10.834 22.8093C11.8418 23.3106 12.6607 24.0626 13.4165 25.1279V22.4334L15.3062 22.3707ZM7.74757 23.8119C6.67677 23.8119 5.73194 24.0626 4.8501 24.5639C3.96827 25.0652 3.2754 25.8172 2.7085 26.7571C2.20459 27.6971 1.88965 28.6997 1.88965 29.7649C1.88965 30.7676 2.1416 31.7702 2.7085 32.7101C3.21241 33.6501 3.96827 34.402 4.8501 34.9033C5.73194 35.4046 6.67677 35.7179 7.74757 35.7179C8.75538 35.7179 9.7632 35.4673 10.708 34.966C11.6528 34.4647 12.3457 33.7127 12.8496 32.8354C13.3535 31.9582 13.6055 30.9555 13.6055 29.8276C13.6055 28.1357 13.0386 26.6944 11.9048 25.5665C10.771 24.3759 9.38527 23.8119 7.74757 23.8119Z" fill="#504B8B"/>
<path d="M34.2657 16.731V37.0338H32.376V34.5273C31.5572 35.4672 30.6753 36.2192 29.7305 36.7205C28.7227 37.2218 27.6519 37.4725 26.5181 37.4725C24.4395 37.4725 22.6758 36.7205 21.1641 35.2166C19.7153 33.7127 18.9595 31.8954 18.9595 29.7649C18.9595 27.6343 19.7153 25.8798 21.1641 24.3759C22.6758 22.8719 24.4395 22.12 26.5181 22.12C27.7149 22.12 28.8486 22.3706 29.7935 22.8719C30.8013 23.3733 31.6201 24.1252 32.376 25.1905V16.8563L34.2657 16.731ZM26.707 23.8119C25.6362 23.8119 24.6914 24.0625 23.8096 24.5639C22.9277 25.0652 22.2349 25.8171 21.668 26.7571C21.1641 27.697 20.8491 28.6996 20.8491 29.7022C20.8491 30.7048 21.1011 31.7075 21.668 32.6474C22.1719 33.5874 22.9277 34.3393 23.8096 34.8406C24.6914 35.3419 25.6362 35.6552 26.707 35.6552C27.7149 35.6552 28.7227 35.4046 29.6675 34.9033C30.6123 34.402 31.3052 33.65 31.8091 32.7727C32.313 31.8954 32.565 30.8928 32.565 29.7649C32.565 28.073 31.9981 26.6317 30.8643 25.5038C29.7305 24.3759 28.3447 23.8119 26.707 23.8119Z" fill="#504B8B"/>
<path d="M37.1631 22.3706H39.1787L44.0918 33.0233L48.9419 22.3706H50.9575L44.2808 37.0338H43.9028L37.1631 22.3706Z" fill="#504B8B"/>
<path d="M52.5322 22.3707H54.5479L59.4609 33.0234L74.5782 -0.0627441H76.5938L59.6499 37.0339H59.272L52.5322 22.3707Z" fill="#00A551"/>
<path d="M83.9004 22.3708V37.0339H82.0108V34.5274C81.1919 35.4674 80.3101 36.2193 79.3653 36.7206C78.3574 37.2219 77.2866 37.4726 76.1528 37.4726C74.0742 37.4726 72.3106 36.7206 70.7988 35.2167C69.3501 33.7128 68.5942 31.8956 68.5942 29.765C68.5942 27.6345 69.3501 25.8799 70.7988 24.376C72.3106 22.8721 74.0742 22.1201 76.1528 22.1201C77.3496 22.1201 78.4834 22.3708 79.4282 22.8721C80.4361 23.3734 81.2549 24.1253 82.0108 25.1906V22.4961L83.9004 22.3708ZM76.3418 23.812C75.271 23.812 74.3262 24.0627 73.4443 24.564C72.5625 25.0653 71.8696 25.8172 71.3027 26.7572C70.7988 27.6971 70.4839 28.6998 70.4839 29.7024C70.4839 30.705 70.7358 31.7076 71.3027 32.6475C71.8066 33.5875 72.5625 34.3394 73.4443 34.8407C74.3262 35.342 75.271 35.6554 76.3418 35.6554C77.3496 35.6554 78.3574 35.4047 79.3023 34.9034C80.2471 34.4021 80.94 33.6501 81.4439 32.7729C81.9478 31.8956 82.1997 30.893 82.1997 29.765C82.1997 28.0731 81.6328 26.6319 80.499 25.5039C79.3653 24.376 77.9795 23.812 76.3418 23.812Z" fill="#504B8B"/>
</g>
<path d="M92.3466 25.8472H90.004L89.502 27.2899H89L91.0079 22.2405H91.4263L93.4342 27.2899H92.9322L92.3466 25.8472ZM90.1713 25.5266H92.2629L91.1753 22.8015L90.1713 25.5266Z" fill="black"/>
<path d="M94.271 25.3663C94.271 24.8052 94.4383 24.3243 94.6893 24.0037C94.9403 23.6831 95.3586 23.5228 95.777 23.5228C96.2789 23.5228 96.6973 23.6831 96.9483 24.0839V22H97.3666V27.2898H96.9483V26.809C96.6973 27.1295 96.2789 27.37 95.777 27.37C95.3586 27.37 94.9403 27.2097 94.6893 26.8891C94.3547 26.4884 94.271 26.0075 94.271 25.3663ZM94.6893 25.4464C94.6893 25.9273 94.773 26.3281 95.024 26.5685C95.1913 26.809 95.526 26.9692 95.8606 26.9692C96.3626 26.9692 96.7809 26.7288 96.9483 26.3281V24.5648C96.6973 24.0839 96.3626 23.8434 95.8606 23.8434C95.526 23.8434 95.1913 24.0037 95.024 24.2442C94.773 24.5648 94.6893 24.9655 94.6893 25.4464Z" fill="black"/>
<path d="M100.043 26.7288L101.215 23.603H101.633L100.211 27.2899H99.8759L98.4536 23.603H98.8719L100.043 26.7288Z" fill="black"/>
<path d="M104.227 27.3701C103.892 27.3701 103.557 27.29 103.306 27.1297C103.055 26.9694 102.804 26.7289 102.721 26.4885C102.553 26.248 102.47 25.9274 102.47 25.5267V25.3664C102.47 25.0458 102.553 24.7252 102.721 24.4046C102.888 24.084 103.055 23.9237 103.306 23.7634C103.557 23.6031 103.808 23.5229 104.143 23.5229C104.645 23.5229 104.98 23.6832 105.231 24.0038C105.565 24.2443 105.733 24.7252 105.733 25.2061V25.4465H102.972V25.5267C102.972 25.9274 103.139 26.3282 103.39 26.5686C103.641 26.8892 103.976 26.9694 104.31 26.9694C104.561 26.9694 104.729 26.9694 104.896 26.8091C105.063 26.7289 105.231 26.5686 105.398 26.4083L105.649 26.5686C105.314 27.1297 104.812 27.3701 104.227 27.3701ZM104.143 23.8435C103.808 23.8435 103.557 23.9237 103.306 24.1641C103.055 24.4046 102.972 24.7252 102.888 25.0458H105.231V24.9656C105.231 24.645 105.147 24.3244 104.896 24.084C104.729 23.9237 104.478 23.8435 104.143 23.8435Z" fill="black"/>
<path d="M108.661 23.9236C108.577 23.9236 108.493 23.9236 108.41 23.9236C108.159 23.9236 107.908 24.0038 107.74 24.1641C107.573 24.3244 107.406 24.4847 107.322 24.8053V27.37H106.904V23.6832H107.322V24.2442C107.573 23.8435 107.908 23.603 108.41 23.603C108.493 23.603 108.661 23.603 108.661 23.6832V23.9236Z" fill="black"/>
<path d="M110.586 22.6409V23.6027H111.422V23.9233H110.586V26.4079C110.586 26.6483 110.586 26.8086 110.67 26.8888C110.753 26.9689 110.837 27.0491 111.088 27.0491C111.171 27.0491 111.255 27.0491 111.422 27.0491V27.3697C111.339 27.3697 111.171 27.4498 111.004 27.4498C110.67 27.4498 110.502 27.3697 110.335 27.2094C110.168 27.0491 110.168 26.8086 110.168 26.488V24.0034H109.415V23.6828H110.168V22.721L110.586 22.6409Z" fill="black"/>
<path d="M112.593 22.4809C112.593 22.4008 112.593 22.3206 112.677 22.3206C112.761 22.2405 112.761 22.2405 112.928 22.2405C113.012 22.2405 113.095 22.2405 113.179 22.3206C113.179 22.3206 113.263 22.4008 113.263 22.4809C113.263 22.5611 113.263 22.6412 113.179 22.6412C113.095 22.7214 113.012 22.7214 112.928 22.7214C112.844 22.7214 112.761 22.7214 112.677 22.6412C112.677 22.6412 112.593 22.5611 112.593 22.4809ZM113.179 27.2899H112.761V23.603H113.179V27.2899Z" fill="black"/>
<path d="M117.027 26.3277C117.027 26.0873 116.944 25.927 116.776 25.8469C116.609 25.6866 116.358 25.6064 116.024 25.5263C115.689 25.4461 115.438 25.366 115.187 25.2858C114.936 25.2057 114.852 25.1255 114.769 24.9652C114.685 24.8049 114.601 24.6446 114.601 24.4843C114.601 24.1637 114.769 23.9233 115.02 23.763C115.271 23.6027 115.605 23.4424 116.024 23.4424C116.442 23.4424 116.776 23.5225 117.027 23.763C117.278 24.0034 117.446 24.2439 117.446 24.5645H117.027C117.027 24.324 116.944 24.1637 116.776 24.0034C116.609 23.8431 116.358 23.763 116.024 23.763C115.773 23.763 115.522 23.8431 115.354 23.9233C115.187 24.0836 115.103 24.1637 115.103 24.4042C115.103 24.5645 115.187 24.7248 115.354 24.8049C115.522 24.8851 115.773 24.9652 116.107 25.1255C116.442 25.2057 116.776 25.2858 116.944 25.366C117.111 25.4461 117.278 25.6064 117.362 25.6866C117.362 25.927 117.446 26.0873 117.446 26.3277C117.446 26.6483 117.278 26.8888 117.027 27.0491C116.776 27.2094 116.442 27.3697 116.024 27.3697C115.605 27.3697 115.187 27.2895 114.936 27.0491C114.685 26.8086 114.518 26.5682 114.518 26.2476H114.936C114.936 26.488 115.02 26.6483 115.271 26.8086C115.438 26.9689 115.689 27.0491 116.024 27.0491C116.358 27.0491 116.526 26.9689 116.776 26.8888C116.944 26.7285 117.027 26.5682 117.027 26.3277Z" fill="black"/>
<path d="M118.701 22.4809C118.701 22.4008 118.701 22.3206 118.784 22.3206C118.868 22.2405 118.868 22.2405 119.035 22.2405C119.119 22.2405 119.203 22.2405 119.286 22.3206C119.37 22.4008 119.37 22.4008 119.37 22.4809C119.37 22.5611 119.37 22.6412 119.286 22.6412C119.203 22.7214 119.119 22.7214 119.035 22.7214C118.952 22.7214 118.868 22.7214 118.784 22.6412C118.784 22.6412 118.701 22.5611 118.701 22.4809ZM119.286 27.2899H118.868V23.603H119.286V27.2899Z" fill="black"/>
<path d="M121.21 23.5225V24.1637C121.378 23.9233 121.545 23.763 121.796 23.6027C122.047 23.5225 122.214 23.4424 122.549 23.4424C122.967 23.4424 123.302 23.5225 123.469 23.763C123.637 24.0034 123.804 24.324 123.804 24.8049V27.2094H123.386V24.7248C123.386 24.4042 123.302 24.1637 123.135 24.0034C122.967 23.8431 122.716 23.763 122.465 23.763C122.214 23.763 121.963 23.8431 121.796 24.0034C121.629 24.1637 121.461 24.4042 121.378 24.6446V27.2094H120.959V23.5225H121.21Z" fill="black"/>
<path d="M125.059 25.3664C125.059 24.8053 125.226 24.3244 125.477 24.0038C125.728 23.6832 126.147 23.5229 126.565 23.5229C127.067 23.5229 127.485 23.7634 127.736 24.1641V23.6031H128.155V27.29C128.155 27.7709 127.987 28.1716 127.736 28.412C127.485 28.6525 127.067 28.8128 126.565 28.8128C126.314 28.8128 126.063 28.7326 125.812 28.6525C125.561 28.5723 125.394 28.412 125.226 28.1716L125.477 27.9312C125.812 28.2517 126.147 28.412 126.565 28.412C126.9 28.412 127.234 28.3319 127.402 28.0915C127.569 27.851 127.736 27.6106 127.736 27.2098V26.7289C127.485 27.1297 127.067 27.29 126.565 27.29C126.147 27.29 125.728 27.1297 125.477 26.8091C125.143 26.4885 125.059 26.0076 125.059 25.3664ZM125.477 25.4465C125.477 25.9274 125.561 26.3282 125.812 26.5686C125.979 26.8091 126.314 26.9694 126.649 26.9694C127.151 26.9694 127.569 26.7289 127.736 26.248V24.4847C127.653 24.2443 127.485 24.084 127.318 23.9237C127.151 23.7634 126.9 23.7634 126.649 23.7634C126.314 23.7634 125.979 23.9237 125.812 24.1641C125.561 24.5649 125.477 24.9656 125.477 25.4465Z" fill="black"/>
<path d="M90.0876 32.8998C89.9203 32.6593 89.753 32.4189 89.6693 32.2586C89.5856 32.0983 89.502 31.8578 89.502 31.6975C89.502 31.3769 89.5856 31.0563 89.8366 30.896C90.0876 30.6556 90.3386 30.5754 90.6733 30.5754C91.0079 30.5754 91.2589 30.6556 91.5099 30.8159C91.6773 30.9762 91.8446 31.2166 91.8446 31.5372C91.8446 31.8578 91.6773 32.1784 91.2589 32.499L90.6733 32.8998L92.0956 34.5027C92.2629 34.2623 92.3466 33.8616 92.3466 33.3807H92.7649C92.7649 34.0219 92.5976 34.5027 92.3466 34.8233L93.0995 35.6248H92.5976L92.1792 35.1439C92.0119 35.3042 91.7609 35.4645 91.5099 35.5447C91.2589 35.6248 91.0079 35.705 90.7569 35.705C90.255 35.705 89.8366 35.5447 89.5856 35.3042C89.1673 35.1439 89 34.8233 89 34.3425C89 34.102 89.0837 33.8616 89.251 33.6211C89.3347 33.4608 89.6693 33.2204 90.0876 32.8998ZM90.5896 35.3844C90.8406 35.3844 91.0079 35.3042 91.2589 35.2241C91.4263 35.1439 91.6773 34.9836 91.8446 34.8233L90.4223 33.2204H90.3386L90.1713 33.3807C89.6693 33.7814 89.502 34.102 89.502 34.4226C89.502 34.7432 89.5856 34.9836 89.8366 35.1439C90.004 35.3042 90.255 35.3844 90.5896 35.3844ZM89.9203 31.6975C89.9203 31.938 90.0876 32.3387 90.4223 32.6593L90.9243 32.3387C91.0916 32.2586 91.1753 32.0983 91.3426 32.0181C91.4263 31.8578 91.5099 31.7777 91.5099 31.5372C91.5099 31.3769 91.4263 31.2166 91.3426 31.0563C91.1753 30.9762 91.0079 30.896 90.8406 30.896C90.5896 30.896 90.4223 30.9762 90.255 31.1365C90.0876 31.2968 89.9203 31.4571 89.9203 31.6975Z" fill="black"/>
<path d="M96.9484 30.6556L98.8727 35.0638L100.797 30.6556H101.383V35.705H100.964V33.541V31.2968L99.04 35.6248H98.7054L96.7811 31.2166V33.4608V35.6248H96.3628V30.5754L96.9484 30.6556Z" fill="black"/>
<path d="M105.398 35.6249C105.315 35.5448 105.315 35.3043 105.315 35.144C105.147 35.3043 104.98 35.4646 104.729 35.5448C104.478 35.6249 104.227 35.7051 103.976 35.7051C103.641 35.7051 103.307 35.6249 103.056 35.3845C102.805 35.2242 102.721 34.9036 102.721 34.6631C102.721 34.2624 102.889 34.0219 103.223 33.7815C103.558 33.541 103.976 33.4609 104.562 33.4609H105.315V33.0601C105.315 32.8197 105.231 32.5793 105.064 32.419C104.896 32.2587 104.645 32.1785 104.311 32.1785C103.976 32.1785 103.725 32.2587 103.558 32.419C103.391 32.5793 103.223 32.7395 103.223 32.98H102.805C102.805 32.6594 102.972 32.419 103.223 32.1785C103.474 31.9381 103.892 31.8579 104.311 31.8579C104.729 31.8579 105.064 31.9381 105.315 32.1785C105.566 32.419 105.733 32.6594 105.733 33.0601V34.8234C105.733 35.144 105.733 35.4646 105.817 35.6249V35.7051H105.398V35.6249ZM104.06 35.3845C104.311 35.3845 104.645 35.3043 104.813 35.2242C105.064 35.0639 105.231 34.9036 105.315 34.6631V33.8616H104.562C104.143 33.8616 103.809 33.9418 103.558 34.1021C103.307 34.2624 103.223 34.4227 103.223 34.6631C103.223 34.9036 103.307 35.0639 103.474 35.144C103.558 35.3043 103.809 35.3845 104.06 35.3845Z" fill="black"/>
<path d="M109.08 32.2588C108.996 32.2588 108.912 32.2588 108.829 32.2588C108.578 32.2588 108.327 32.339 108.159 32.4993C107.992 32.6596 107.825 32.8199 107.741 33.1405V35.7052H107.323V32.0184H107.741V32.5794C107.992 32.1787 108.327 31.9382 108.829 31.9382C108.912 31.9382 109.08 31.9382 109.08 32.0184V32.2588Z" fill="black"/>
<path d="M111.004 33.7816L110.502 34.2625V35.625H110.083V30.3352H110.502V33.7015L110.92 33.3007L112.426 31.9382H112.928L111.255 33.5412L113.012 35.7052H112.51L111.004 33.7816Z" fill="black"/>
<path d="M115.522 35.7051C115.187 35.7051 114.853 35.6249 114.602 35.4646C114.351 35.3043 114.1 35.0639 114.016 34.8234C113.849 34.583 113.765 34.2624 113.765 33.8616V33.7013C113.765 33.3807 113.849 33.0601 114.016 32.7395C114.183 32.419 114.351 32.2587 114.602 32.0984C114.853 31.9381 115.104 31.8579 115.438 31.8579C115.94 31.8579 116.275 32.0182 116.526 32.3388C116.777 32.6594 116.944 33.0601 116.944 33.6212V33.8616H114.183V33.9418C114.183 34.3425 114.351 34.7433 114.602 34.9837C114.853 35.3043 115.187 35.3845 115.522 35.3845C115.773 35.3845 115.94 35.3845 116.108 35.2242C116.275 35.144 116.442 34.9837 116.61 34.8234L116.861 34.9837C116.61 35.5448 116.108 35.7051 115.522 35.7051ZM115.438 32.1785C115.104 32.1785 114.853 32.2587 114.602 32.4991C114.351 32.7396 114.267 33.0601 114.183 33.3807H116.526V33.3006C116.526 32.98 116.442 32.6594 116.191 32.419C116.024 32.3388 115.773 32.1785 115.438 32.1785Z" fill="black"/>
<path d="M118.868 30.9758V31.9376H119.705V32.2582H118.868V34.7428C118.868 34.9833 118.868 35.1436 118.952 35.2237C119.035 35.3039 119.119 35.384 119.37 35.384C119.454 35.384 119.537 35.384 119.705 35.384V35.7046C119.621 35.7046 119.454 35.7848 119.286 35.7848C118.952 35.7848 118.784 35.7046 118.617 35.5443C118.45 35.384 118.45 35.1436 118.45 34.823V32.3384H117.697V32.0178H118.45V31.056L118.868 30.9758Z" fill="black"/>
<path d="M120.876 30.8965C120.876 30.8163 120.876 30.7362 120.96 30.7362C121.043 30.656 121.043 30.656 121.211 30.656C121.294 30.656 121.378 30.656 121.462 30.7362C121.545 30.8163 121.545 30.8163 121.545 30.8965C121.545 30.9766 121.545 31.0568 121.462 31.0568C121.378 31.1369 121.294 31.1369 121.211 31.1369C121.127 31.1369 121.043 31.1369 120.96 31.0568C120.876 30.9766 120.876 30.8965 120.876 30.8965ZM121.378 35.6253H120.96V31.9384H121.378V35.6253Z" fill="black"/>
<path d="M123.302 31.9381V32.5793C123.47 32.3388 123.637 32.1785 123.888 32.0182C124.139 31.9381 124.306 31.8579 124.641 31.8579C125.059 31.8579 125.394 31.9381 125.561 32.1785C125.729 32.419 125.896 32.7396 125.896 33.2204V35.6249H125.478V33.1403C125.478 32.8197 125.394 32.5793 125.227 32.419C125.059 32.2587 124.808 32.1785 124.557 32.1785C124.306 32.1785 124.055 32.2587 123.888 32.419C123.721 32.5793 123.553 32.8197 123.47 33.0601V35.6249H123.051V31.9381H123.302Z" fill="black"/>
<path d="M127.151 33.7817C127.151 33.2206 127.318 32.7397 127.569 32.4191C127.82 32.0985 128.239 31.9382 128.657 31.9382C129.159 31.9382 129.577 32.1787 129.828 32.5794V32.0184H130.246V35.7052C130.246 36.1861 130.079 36.5869 129.828 36.8273C129.577 37.0678 129.159 37.2281 128.657 37.2281C128.406 37.2281 128.155 37.1479 127.904 37.0678C127.653 36.9876 127.486 36.8273 127.318 36.5869L127.569 36.3464C127.904 36.667 128.239 36.9075 128.657 36.9075C128.991 36.9075 129.326 36.8273 129.493 36.5869C129.661 36.3464 129.828 36.106 129.828 35.7052V35.2243C129.577 35.6251 129.159 35.7854 128.657 35.7854C128.239 35.7854 127.82 35.6251 127.569 35.3045C127.318 34.9037 127.151 34.4229 127.151 33.7817ZM127.569 33.8618C127.569 34.3427 127.653 34.7435 127.904 34.9839C128.071 35.2243 128.406 35.3846 128.741 35.3846C129.242 35.3846 129.661 35.1442 129.828 34.6633V32.9C129.744 32.6596 129.577 32.4993 129.41 32.339C129.242 32.1787 128.991 32.1787 128.741 32.1787C128.406 32.1787 128.071 32.339 127.904 32.5794C127.737 32.9 127.569 33.3008 127.569 33.8618Z" fill="black"/>
<path d="M136.856 34.2623H134.513L133.927 35.6248H133.425L135.433 30.5754H135.852L137.859 35.6248H137.441L136.856 34.2623ZM134.597 33.8616H136.688L135.601 31.1365L134.597 33.8616Z" fill="black"/>
<path d="M138.697 33.7817C138.697 33.2206 138.864 32.7397 139.115 32.4191C139.366 32.0985 139.784 31.9382 140.203 31.9382C140.705 31.9382 141.123 32.1787 141.374 32.5794V32.0184H141.792V35.7052C141.792 36.1861 141.625 36.5869 141.374 36.8273C141.123 37.0678 140.705 37.2281 140.203 37.2281C139.952 37.2281 139.701 37.1479 139.45 37.0678C139.199 36.9876 139.031 36.8273 138.864 36.5869L139.115 36.3464C139.45 36.667 139.784 36.9075 140.203 36.9075C140.537 36.9075 140.872 36.8273 141.039 36.5869C141.207 36.3464 141.374 36.106 141.374 35.7052V35.2243C141.123 35.6251 140.705 35.7854 140.203 35.7854C139.784 35.7854 139.366 35.6251 139.115 35.3045C138.864 34.9839 138.697 34.4229 138.697 33.7817ZM139.199 33.8618C139.199 34.3427 139.282 34.7435 139.533 34.9839C139.701 35.2243 140.035 35.3846 140.37 35.3846C140.872 35.3846 141.29 35.1442 141.458 34.6633V32.9C141.374 32.6596 141.207 32.4993 141.039 32.339C140.872 32.1787 140.621 32.1787 140.37 32.1787C140.035 32.1787 139.701 32.339 139.533 32.5794C139.282 32.9 139.199 33.3008 139.199 33.8618Z" fill="black"/>
<path d="M144.887 35.7051C144.553 35.7051 144.218 35.6249 143.967 35.4646C143.716 35.3043 143.465 35.0639 143.381 34.8234C143.214 34.583 143.13 34.2624 143.13 33.8616V33.7013C143.13 33.3807 143.214 33.0601 143.381 32.7395C143.549 32.419 143.716 32.2587 143.967 32.0984C144.218 31.9381 144.469 31.8579 144.804 31.8579C145.306 31.8579 145.64 32.0182 145.891 32.3388C146.142 32.6594 146.31 33.0601 146.31 33.6212V33.8616H143.549V33.9418C143.549 34.3425 143.716 34.7433 143.967 34.9837C144.218 35.3043 144.553 35.3845 144.887 35.3845C145.138 35.3845 145.306 35.3845 145.473 35.2242C145.64 35.144 145.808 34.9837 145.975 34.8234L146.226 34.9837C145.891 35.5448 145.473 35.7051 144.887 35.7051ZM144.804 32.1785C144.469 32.1785 144.218 32.2587 143.967 32.4991C143.716 32.7396 143.632 33.0601 143.549 33.3807H145.891V33.3006C145.891 32.98 145.808 32.6594 145.557 32.419C145.389 32.3388 145.138 32.1785 144.804 32.1785Z" fill="black"/>
<path d="M147.9 31.9381V32.5793C148.067 32.3388 148.234 32.1785 148.485 32.0182C148.736 31.9381 148.904 31.8579 149.238 31.8579C149.657 31.8579 149.991 31.9381 150.159 32.1785C150.326 32.419 150.493 32.7395 150.493 33.2204V35.6249H150.075V33.2204C150.075 32.8998 149.991 32.6594 149.824 32.4991C149.657 32.3388 149.406 32.2587 149.155 32.2587C148.904 32.2587 148.653 32.3388 148.485 32.4991C148.318 32.6594 148.151 32.8998 148.067 33.1403V35.7051L147.565 35.6249V31.9381H147.9Z" fill="black"/>
<path d="M153.338 35.3845C153.672 35.3845 153.923 35.3043 154.091 35.144C154.258 34.9837 154.425 34.7433 154.425 34.5028H154.844C154.844 34.7433 154.76 34.9036 154.593 35.144C154.425 35.3043 154.258 35.4646 154.007 35.5448C153.756 35.6249 153.505 35.7051 153.254 35.7051C152.752 35.7051 152.334 35.5448 152.083 35.2242C151.748 34.9036 151.665 34.4227 151.665 33.8616V33.7013C151.665 33.3006 151.748 32.98 151.832 32.7395C151.999 32.419 152.167 32.2587 152.418 32.0984C152.669 31.9381 152.919 31.8579 153.338 31.8579C153.756 31.8579 154.091 32.0182 154.425 32.2587C154.676 32.4991 154.844 32.8197 154.844 33.2204H154.425C154.425 32.8998 154.258 32.6594 154.091 32.4991C153.923 32.3388 153.672 32.2587 153.338 32.2587C152.919 32.2587 152.669 32.419 152.418 32.6594C152.167 32.8998 152.083 33.3006 152.083 33.7815V33.9418C152.083 34.4227 152.167 34.8234 152.418 35.0639C152.669 35.2242 153.003 35.3845 153.338 35.3845Z" fill="black"/>
<path d="M157.353 35.0639L158.525 31.9381H159.027L157.353 36.2661L157.27 36.4264C157.019 36.9073 156.768 37.0676 156.266 37.0676C156.182 37.0676 156.015 37.0676 155.931 36.9875V36.6669H156.182C156.433 36.6669 156.6 36.5867 156.684 36.5066C156.851 36.4264 156.935 36.2661 157.019 36.0257L157.186 35.5448L155.68 31.8579H156.182L157.353 35.0639Z" fill="black"/>
<defs>
<clipPath id="clip0_4931_278">
<rect width="84.9083" height="48" fill="white"/>
</clipPath>
</defs>
</svg>
