<svg width="96" height="96" viewBox="0 0 96 96" fill="none" xmlns="http://www.w3.org/2000/svg">
<g clip-path="url(#clip0_4943_1397)">
<path d="M71.9999 25.5999C72.0105 31.4977 69.8392 37.191 65.9039 41.5839L50.1599 41.5999C48.7826 41.5982 47.4689 42.1795 46.5439 43.1999L45.0879 44.7999L33.5839 44.7839C24.5622 38.0059 21.4808 25.8583 26.1809 15.5995C30.881 5.3407 42.0929 -0.25829 53.1177 2.14795C64.1424 4.5542 72.0018 14.3157 71.9999 25.5999Z" fill="#FFC7B5"/>
<path d="M48.0001 1.59991C47.1905 1.59991 46.3905 1.64311 45.6001 1.72151C54.581 2.62413 62.296 8.4893 65.5679 16.9015C68.8397 25.3138 67.115 34.8504 61.1041 41.5839H65.9041C72.205 34.5266 73.772 24.4263 69.9056 15.7916C66.0391 7.15701 57.4609 1.59946 48.0001 1.59991Z" fill="#FFDCD2"/>
<path d="M43.1999 36.8C42.3513 36.7998 41.5375 36.4625 40.9375 35.8624L36.1375 31.0624C34.9248 29.8067 34.9422 27.8109 36.1765 26.5765C37.4109 25.3422 39.4067 25.3248 40.6623 26.5376L43.0783 28.952L55.2207 15.4591C56.4031 14.1452 58.4267 14.0384 59.7407 15.2207C61.0547 16.4031 61.1615 18.4268 59.9791 19.7407L45.5791 35.7408C44.992 36.3936 44.1625 36.7766 43.2847 36.8H43.1999Z" fill="#FFEAE3"/>
<path d="M29.3119 76C29.3144 76.4248 29.2441 76.8469 29.1039 77.248L26.7839 83.376C25.9187 85.305 23.7018 86.2276 21.7235 85.4821C19.7452 84.7365 18.6887 82.5802 19.3119 80.56L21.5679 74.576C21.6915 74.2217 21.8756 73.8915 22.1119 73.6C23.1449 72.2226 24.9434 71.6608 26.5768 72.2052C28.2102 72.7497 29.3119 74.2782 29.3119 76Z" fill="#FFEAE3"/>
<path d="M37.3599 77.3279C37.3605 77.8037 37.2737 78.2755 37.1039 78.7199L34.2719 86.1919C33.4943 88.2597 31.1877 89.3055 29.1199 88.5279C27.0522 87.7503 26.0063 85.4437 26.7839 83.3759L29.1039 77.2479L29.6159 75.9039C30.2974 74.0916 32.1791 73.0276 34.0834 73.3778C35.9876 73.728 37.3677 75.3918 37.3599 77.3279Z" fill="#FFEAE3"/>
<path d="M51.2001 85.936C51.2006 86.4117 51.1139 86.8835 50.9441 87.328L49.9681 89.92L49.2481 91.808C48.4198 93.7929 46.1702 94.7675 44.1556 94.0142C42.141 93.2609 41.0828 91.0493 41.7601 89.008L43.4881 84.432C44.2031 82.651 46.0822 81.6288 47.9658 81.9962C49.8494 82.3635 51.2067 84.0169 51.2001 85.936Z" fill="#FFEAE3"/>
<path d="M44.8477 80.144C44.8483 80.6197 44.7615 81.0915 44.5917 81.536L43.4877 84.432L41.7597 89.008C40.9821 91.0757 38.6755 92.1216 36.6077 91.344C34.54 90.5664 33.4941 88.2597 34.2717 86.192L37.1037 78.72C37.7852 76.9077 39.6669 75.8437 41.5712 76.1939C43.4754 76.544 44.8555 78.2078 44.8477 80.144Z" fill="#FFEAE3"/>
<path d="M72.6079 69.7919C73.556 67.7992 72.7112 65.4151 70.7199 64.4639L50.9439 54.3199L41.7599 62.6079C40.3569 63.8591 38.3493 64.1683 36.6348 63.3975C34.9203 62.6266 33.8192 60.9198 33.8239 59.0399C33.8144 57.8557 34.2548 56.7121 35.0559 55.8399L45.0879 44.7999L46.5439 43.1999C47.4689 42.1795 48.7826 41.5982 50.1599 41.5999L65.9039 41.5839L75.1999 41.5679L80.4479 70.3999H72.2399C72.3867 70.2129 72.5103 70.0088 72.6079 69.7919Z" fill="#FFEAE3"/>
<path d="M75.2003 41.5679L70.4019 41.5759L75.6483 70.3999H80.4483L75.2003 41.5679Z" fill="#FFDCD2"/>
<path d="M94.4003 41.6V70.4C94.395 72.1651 92.9654 73.5947 91.2003 73.6H83.2643C81.9653 73.6015 80.8524 72.6708 80.6243 71.392L80.4483 70.4L75.2003 41.568C75.0557 40.7843 75.2672 39.977 75.7773 39.3648C76.2875 38.7527 77.0434 38.3991 77.8403 38.4H91.2003C92.9654 38.4052 94.395 39.8348 94.4003 41.6Z" fill="#FFEAE3"/>
<path d="M91.1999 38.4H86.3999C88.165 38.4052 89.5946 39.8348 89.5999 41.6V70.4C89.5946 72.1651 88.165 73.5947 86.3999 73.6H91.1999C92.965 73.5947 94.3946 72.1651 94.3999 70.4V41.6C94.3946 39.8348 92.965 38.4052 91.1999 38.4Z" fill="#FFDCD2"/>
<path d="M72.6082 69.792C72.5107 70.0088 72.3871 70.213 72.2402 70.4C71.1267 71.9883 69.0234 72.5311 67.2802 71.68C68.6715 72.3463 69.5555 73.7534 69.5522 75.296C69.5494 75.8928 69.4185 76.4821 69.1682 77.024C68.5046 78.4176 67.0958 79.3028 65.5522 79.296C64.9605 79.2931 64.3765 79.1621 63.8402 78.912C65.5132 79.722 66.4076 81.5778 65.9991 83.3911C65.5907 85.2044 63.9869 86.4974 62.1282 86.512C61.5314 86.5092 60.9421 86.3782 60.4002 86.128C61.7939 86.7916 62.679 88.2004 62.6722 89.744C62.6694 90.3408 62.5385 90.9301 62.2882 91.472C61.8341 92.4265 61.0182 93.1606 60.0213 93.5119C59.0243 93.8633 57.9285 93.8028 56.9762 93.344L49.9682 89.92L50.9442 87.328C51.114 86.8835 51.2008 86.4117 51.2002 85.936C51.2068 84.0169 49.8495 82.3635 47.9659 81.9962C46.0823 81.6288 44.2032 82.651 43.4882 84.432L44.5922 81.536C44.762 81.0915 44.8488 80.6197 44.8482 80.144C44.856 78.2078 43.476 76.544 41.5717 76.1938C39.6674 75.8437 37.7857 76.9077 37.1042 78.72C37.274 78.2755 37.3608 77.8037 37.3602 77.328C37.368 75.3918 35.988 73.728 34.0837 73.3778C32.1794 73.0277 30.2977 74.0917 29.6162 75.9039L29.1042 77.248C29.2444 76.8469 29.3148 76.4248 29.3122 76C29.3122 74.2782 28.2105 72.7497 26.5772 72.2052C24.9438 71.6608 23.1453 72.2226 22.1122 73.6H15.5522L20.8002 44.7679L33.5842 44.7839L45.0882 44.7999L35.0562 55.84C34.2551 56.7121 33.8148 57.8557 33.8242 59.04C33.8196 60.9198 34.9206 62.6267 36.6352 63.3975C38.3497 64.1684 40.3572 63.8591 41.7602 62.608L50.9442 54.3199L70.7202 64.464C72.7116 65.4151 73.5564 67.7992 72.6082 69.792Z" fill="#FFEAE3"/>
<path d="M70.7203 64.4639L50.9443 54.3199L49.2051 55.8895L65.9203 64.4639C67.6124 65.2642 68.5233 67.131 68.1128 68.9572C67.7022 70.7835 66.0801 72.0808 64.2083 72.0799C63.6094 72.0792 63.0185 71.9424 62.4803 71.6799C64.1752 72.4815 65.0859 74.3527 64.6711 76.1811C64.2562 78.0094 62.6271 79.3044 60.7523 79.2959C60.1606 79.2931 59.5765 79.1621 59.0403 78.9119C60.7132 79.722 61.6077 81.5778 61.1992 83.3911C60.7907 85.2044 59.187 86.4974 57.3283 86.5119C56.7314 86.5091 56.1421 86.3782 55.6003 86.1279C57.5936 87.0856 58.4377 89.4746 57.4883 91.4719C57.1965 92.0727 56.7559 92.5888 56.2083 92.9711L56.9699 93.3439C57.9221 93.8028 59.018 93.8633 60.0149 93.5119C61.0119 93.1606 61.8277 92.4264 62.2819 91.4719C63.2303 89.4746 62.3865 87.0862 60.3939 86.1279C60.9357 86.3782 61.525 86.5091 62.1219 86.5119C63.9806 86.4974 65.5843 85.2044 65.9928 83.3911C66.4013 81.5778 65.5068 79.722 63.8339 78.9119C64.3701 79.1621 64.9542 79.2931 65.5459 79.2959C67.4207 79.3044 69.0498 78.0094 69.4647 76.1811C69.8795 74.3527 68.9688 72.4815 67.2739 71.6799C68.2294 72.1451 69.3317 72.2071 70.3334 71.8522C71.3351 71.4972 72.1524 70.755 72.6019 69.7919C73.5509 67.8009 72.7091 65.4174 70.7203 64.4639Z" fill="#FFDCD2"/>
<path d="M20.8001 44.7679L15.5521 73.5999L15.3761 74.5919C15.148 75.8707 14.0351 76.8015 12.7361 76.7999H4.8001C3.03497 76.7947 1.60537 75.365 1.6001 73.5999V44.7999C1.60537 43.0348 3.03497 41.6052 4.8001 41.5999H18.1601C18.957 41.5991 19.7129 41.9526 20.223 42.5648C20.7332 43.177 20.9446 43.9843 20.8001 44.7679Z" fill="#FFEAE3"/>
<path d="M18.16 41.5999H13.36C14.1569 41.5991 14.9128 41.9526 15.423 42.5648C15.9331 43.177 16.1446 43.9843 16 44.7679L10.752 73.5999L10.576 74.5919C10.3479 75.8707 9.23503 76.8015 7.93604 76.7999H12.736C14.035 76.8015 15.1479 75.8707 15.376 74.5919L15.552 73.5999L20.8 44.7679C20.9446 43.9843 20.7331 43.177 20.223 42.5648C19.7128 41.9526 18.9569 41.5991 18.16 41.5999Z" fill="#FFDCD2"/>
<path d="M33.5776 44.7776H38.3776C30.482 38.8363 27.0348 28.6631 29.6923 19.1459C32.3497 9.62874 40.5686 2.71302 50.4 1.72158C49.6096 1.64318 48.8096 1.59998 48 1.59998C37.6779 1.60317 28.514 8.20597 25.2437 17.9963C21.9735 27.7867 25.3295 38.5715 33.5776 44.7776Z" fill="white"/>
<path d="M4.8001 76.8H9.6001C7.83497 76.7947 6.40537 75.3651 6.4001 73.6V44.8C6.40537 43.0349 7.83497 41.6052 9.6001 41.6H4.8001C3.03497 41.6052 1.60537 43.0349 1.6001 44.8V73.6C1.60537 75.3651 3.03497 76.7947 4.8001 76.8Z" fill="white"/>
<path d="M0 44.8H3.2V57.6H0V44.8Z" fill="white"/>
<path d="M46.7679 36.8112L61.1679 20.8112C62.9414 18.8406 62.7816 15.8055 60.8111 14.032C58.8405 12.2585 55.8054 12.4182 54.0319 14.3888L43.0159 26.6288L41.7951 25.4064C39.8946 23.5951 36.9068 23.5951 35.0063 25.4064C34.1059 26.3066 33.6001 27.5276 33.6001 28.8008C33.6001 30.074 34.1059 31.295 35.0063 32.1952L39.8063 36.9952C40.7045 37.8978 41.9265 38.4037 43.1999 38.4H43.3279C44.6433 38.3619 45.886 37.788 46.7679 36.8112ZM43.1999 36.8V35.2C42.7753 35.2011 42.368 35.0323 42.0687 34.7312L37.2687 29.9312C36.8527 29.5295 36.6859 28.9346 36.8324 28.3752C36.9788 27.8158 37.4157 27.3789 37.9751 27.2325C38.5345 27.086 39.1294 27.2528 39.5311 27.6688L41.9471 30.0832C42.2522 30.4011 42.6797 30.5719 43.1199 30.552C43.5587 30.5403 43.9735 30.3488 44.2671 30.0224L56.4095 16.5312C56.7916 16.1059 57.3716 15.9168 57.931 16.0351C58.4904 16.1534 58.9441 16.5611 59.1214 17.1047C59.2986 17.6482 59.1724 18.2451 58.7903 18.6704L44.3903 34.6704C44.0962 34.9982 43.6801 35.1904 43.2399 35.2016L43.1999 36.8Z" fill="#514B8F"/>
<path d="M91.2 36.8H77.8432C75.9057 36.7987 74.2088 38.0986 73.7056 39.9696H69.1536C76.723 28.871 74.4257 13.8092 63.8917 5.47182C53.3577 -2.86551 38.1709 -1.64191 29.1077 8.27439C20.0444 18.1907 20.1881 33.426 29.4368 43.1696L22.2944 43.16C21.7876 41.2928 20.0915 39.9975 18.1568 40H4.8C2.14903 40 0 42.149 0 44.8C0 45.6836 0.716344 46.4 1.6 46.4C2.48366 46.4 3.2 45.6836 3.2 44.8C3.2 43.9163 3.91634 43.2 4.8 43.2H18.1568C18.479 43.1995 18.7847 43.3422 18.9912 43.5895C19.1977 43.8368 19.2836 44.1631 19.2256 44.48L13.8032 74.3072C13.7089 74.8243 13.2584 75.2 12.7328 75.2H4.8C3.91634 75.2 3.2 74.4837 3.2 73.6V57.6C3.2 56.7163 2.48366 56 1.6 56C0.716344 56 0 56.7163 0 57.6V73.6C0 76.251 2.14903 78.4 4.8 78.4H12.7328C14.6774 78.397 16.3749 77.0821 16.864 75.2H19.6224L17.816 80C17.291 81.3872 17.34 82.9264 17.9522 84.2774C18.5643 85.6284 19.6893 86.6801 21.0784 87.2C22.4886 87.7226 24.0495 87.6575 25.4112 87.0192C25.4192 87.0384 25.4224 87.0576 25.4304 87.0768C26.0464 88.4403 27.1834 89.4998 28.5869 90.0183C29.9904 90.5367 31.5431 90.4708 32.8976 89.8352C32.8976 89.8544 32.9088 89.8736 32.9168 89.8928C33.5328 91.2563 34.6698 92.3158 36.0733 92.8343C37.4768 93.3527 39.0295 93.2868 40.384 92.6512C40.392 92.6704 40.3936 92.6896 40.4016 92.7072C41.3322 94.7729 43.4159 96.0744 45.6805 96.0043C47.9452 95.9343 49.9444 94.5065 50.7456 92.3872L50.8416 92.1344L56.2816 94.7904C57.0348 95.1572 57.8614 95.3481 58.6992 95.3488C59.3293 95.347 59.9547 95.2388 60.5488 95.0288C61.9568 94.5371 63.1073 93.499 63.7408 92.1488C64.3789 90.7877 64.4485 89.2286 63.9344 87.816L63.9904 87.7968C65.3988 87.2971 66.549 86.2552 67.1851 84.903C67.8213 83.5508 67.8906 82.0004 67.3776 80.5968L67.4288 80.5792C68.8375 80.0798 69.9881 79.0381 70.6245 77.6858C71.261 76.3336 71.3305 74.783 70.8176 73.3792C71.6284 73.0905 72.3615 72.6185 72.96 72H79.136C79.625 73.8821 81.3226 75.197 83.2672 75.2H91.2C93.851 75.2 96 73.051 96 70.4V41.6C96 38.949 93.851 36.8 91.2 36.8ZM25.6 25.6C25.5858 15.697 32.076 6.95983 41.5611 4.11321C51.0462 1.26658 61.2748 4.9861 66.7159 13.2604C72.157 21.5348 71.5191 32.4 65.1472 39.9808L50.16 40C48.3328 40.0006 46.5904 40.7708 45.36 42.1216L44.384 43.2L34.1616 43.1872C28.7404 38.9651 25.5792 32.4712 25.6 25.6ZM22.2 84.2048C21.6057 83.9826 21.1245 83.5326 20.8632 82.9544C20.6019 82.3762 20.582 81.7177 20.808 81.1248L23.0672 75.1344C23.5627 73.9507 24.9018 73.3662 26.1067 73.8077C27.3116 74.2492 27.9561 75.5603 27.5696 76.784L26.248 80.28L25.288 82.8112C24.8182 84.047 23.4375 84.6701 22.2 84.2048ZM29.6864 87.0144C29.0921 86.7924 28.6106 86.343 28.3483 85.7654C28.0859 85.1879 28.0642 84.5296 28.288 83.936C28.4768 83.4384 31.168 76.3024 31.1104 76.4672C31.6077 75.2753 32.9591 74.6908 34.1682 75.1444C35.3774 75.598 36.0109 76.9271 35.6016 78.152L32.7808 85.6192C32.3082 86.8558 30.926 87.479 29.6864 87.0144ZM37.1728 89.8304C36.5784 89.6081 36.0969 89.1584 35.8346 88.5805C35.5722 88.0027 35.5506 87.3442 35.7744 86.7504L38.5968 79.2832C38.9392 78.3743 39.7957 77.7613 40.7665 77.7305C41.7373 77.6997 42.631 78.257 43.0304 79.1424C43.2929 79.7182 43.3136 80.3752 43.088 80.9664C42.6656 82.0864 40.1024 88.8688 40.2672 88.4352C40.0419 89.0306 39.5893 89.5121 39.009 89.7737C38.4287 90.0354 37.7682 90.0558 37.1728 89.8304ZM44.6576 92.64C44.0631 92.4184 43.5814 91.969 43.3192 91.3912C43.0571 90.8134 43.036 90.1549 43.2608 89.5616L44.9536 85.0816C45.465 83.9117 46.8028 83.3471 47.9978 83.7967C49.1928 84.2463 49.8266 85.5528 49.44 86.7696L47.7472 91.2496C47.2761 92.485 45.8946 93.1067 44.6576 92.64ZM71.1584 69.12C70.5747 70.2903 69.1675 70.786 67.9792 70.24L63.6592 68.176C62.8766 67.8621 61.9847 68.2094 61.6205 68.9699C61.2563 69.7304 61.5448 70.6431 62.28 71.056L66.6 73.1168L66.6128 73.1264C67.4128 73.4782 67.9584 74.2371 68.037 75.1076C68.1155 75.978 67.7147 76.8224 66.9906 77.3118C66.2665 77.8012 65.3336 77.8583 64.5552 77.4608L59.9152 75.2384C59.1311 74.9166 58.2321 75.2622 57.8654 76.0263C57.4986 76.7903 57.7913 77.7079 58.5328 78.1184L63.1728 80.3392C64.0488 80.7579 64.5863 81.6632 64.5344 82.6327C64.4826 83.6023 63.8517 84.4451 62.936 84.768C62.3399 84.9797 61.6841 84.9451 61.1136 84.672H61.0896L56.7088 82.568C55.923 82.2374 55.016 82.5809 54.6464 83.3491C54.2768 84.1173 54.5745 85.0404 55.3232 85.448L59.7232 87.56C60.9134 88.1418 61.413 89.5736 60.8432 90.7696C60.5726 91.3383 60.0868 91.776 59.4931 91.9861C58.8994 92.1962 58.2465 92.1615 57.6784 91.8896L51.9776 89.12L52.4384 87.8992C53.1498 86.051 52.8229 83.9639 51.5805 82.4217C50.3382 80.8796 48.3684 80.1159 46.4112 80.4176C46.522 78.4579 45.5931 76.5846 43.9661 75.4866C42.3391 74.3886 40.2543 74.228 38.4784 75.064C38.4784 75.0448 38.4672 75.0256 38.4592 75.0064C37.7563 73.4498 36.3795 72.3006 34.7223 71.8874C33.0651 71.4741 31.3099 71.8422 29.9584 72.8864C29.0405 71.4957 27.5473 70.5898 25.8898 70.4181C24.2323 70.2464 22.5851 70.8269 21.4016 72H17.4752L22.1344 46.3696L33.4944 46.384C33.5296 46.384 33.5648 46.4016 33.6 46.4016C33.6352 46.4016 33.648 46.3856 33.672 46.3856L41.48 46.3952L33.8784 54.7568C31.592 57.265 31.6725 61.125 34.0614 63.5358C36.4504 65.9465 40.3096 66.062 42.8384 63.7984L51.2 56.248L70.032 65.9056C71.2287 66.4839 71.7324 67.9212 71.1584 69.12ZM53.736 53.9536L55.4704 52.3872C56.1019 51.7899 56.1409 50.7977 55.5584 50.1525C54.9759 49.5074 53.9848 49.4453 53.3264 50.0128L40.7008 61.4144C39.4403 62.5368 37.5218 62.4759 36.335 61.2759C35.1482 60.0759 35.1085 58.1568 36.2448 56.9088L47.7312 44.2688C48.3556 43.5865 49.2383 43.1985 50.1632 43.2L65.8432 43.1792C65.9103 43.1832 65.9777 43.1832 66.0448 43.1792L73.8624 43.1696L78.5248 68.8H74.5248C74.8484 66.4191 73.6114 64.0985 71.4544 63.04L53.736 53.9536ZM92.8 70.4C92.8 71.2836 92.0836 72 91.2 72H83.2672C82.7416 72 82.2911 71.6243 82.1968 71.1072L76.7744 41.28C76.7164 40.9631 76.8023 40.6368 77.0088 40.3895C77.2153 40.1422 77.521 39.9995 77.8432 40H91.2C92.0836 40 92.8 40.7163 92.8 41.6V70.4Z" fill="#514B8F"/>
<path d="M1.6 52.8C2.48366 52.8 3.2 52.0836 3.2 51.2C3.2 50.3163 2.48366 49.6 1.6 49.6C0.716344 49.6 0 50.3163 0 51.2C0 52.0836 0.716344 52.8 1.6 52.8Z" fill="#514B8F"/>
</g>
<defs>
<clipPath id="clip0_4943_1397">
<rect width="96" height="96" fill="white"/>
</clipPath>
</defs>
</svg>
