<svg width="56" height="56" viewBox="0 0 56 56" fill="none" xmlns="http://www.w3.org/2000/svg">
<circle cx="28" cy="28" r="28" fill="url(#paint0_radial_4943_1281)"/>
<path d="M26.8122 36V28.56C26.8122 28.032 26.8122 27.504 26.8122 26.976C26.8122 26.448 26.8122 25.92 26.8122 25.392C26.3002 25.84 25.7482 26.232 25.1562 26.568C24.5642 26.888 23.9402 27.096 23.2842 27.192L22.9722 22.704C23.4682 22.656 23.9642 22.552 24.4602 22.392C24.9562 22.216 25.4202 22.008 25.8522 21.768C26.3002 21.528 26.6922 21.272 27.0282 21C27.3802 20.728 27.6442 20.448 27.8202 20.16H32.1642V36H26.8122Z" fill="white"/>
<defs>
<radialGradient id="paint0_radial_4943_1281" cx="0" cy="0" r="1" gradientUnits="userSpaceOnUse" gradientTransform="translate(28 28) rotate(90) scale(28)">
<stop stop-color="#EB8C54"/>
<stop offset="1" stop-color="#EC6350"/>
</radialGradient>
</defs>
</svg>
