<svg width="120" height="118" viewBox="0 0 120 118" fill="none" xmlns="http://www.w3.org/2000/svg">
<path d="M60 7.375C49.6165 7.375 39.4662 10.4028 30.8326 16.0754C22.199 21.748 15.4699 29.8107 11.4963 39.244C7.52275 48.6772 6.48307 59.0573 8.5088 69.0715C10.5345 79.0858 15.5347 88.2845 22.8769 95.5044C30.2192 102.724 39.5738 107.641 49.7578 109.633C59.9418 111.625 70.4978 110.603 80.0909 106.695C89.684 102.788 97.8834 96.171 103.652 87.6813C109.421 79.1916 112.5 69.2105 112.5 59C112.5 45.3082 106.969 32.1772 97.1231 22.4956C87.2775 12.814 73.9239 7.375 60 7.375ZM87.9263 62.3003L42.9263 84.4253C42.3544 84.7063 41.719 84.8389 41.0804 84.8104C40.4417 84.782 39.8211 84.5935 39.2774 84.2628C38.7337 83.9321 38.285 83.4703 37.9739 82.9211C37.6629 82.3719 37.4997 81.7536 37.5 81.125V36.875C37.5004 36.2467 37.664 35.6289 37.9753 35.0802C38.2867 34.5315 38.7354 34.0702 39.279 33.7399C39.8226 33.4097 40.443 33.2215 41.0813 33.1932C41.7196 33.1649 42.3547 33.2975 42.9263 33.5784L87.9263 55.7034C88.5483 56.0099 89.0714 56.4807 89.4369 57.0629C89.8024 57.6451 89.996 58.3158 89.996 59C89.996 59.6842 89.8024 60.3549 89.4369 60.9371C89.0714 61.5193 88.5483 61.99 87.9263 62.2966V62.3003Z" fill="white"/>
</svg>
