<svg width="56" height="56" viewBox="0 0 56 56" fill="none" xmlns="http://www.w3.org/2000/svg">
<circle cx="28" cy="28" r="28" fill="url(#paint0_radial_4943_1355)"/>
<path d="M27.7207 36.24C25.8327 36.24 24.3047 35.912 23.1367 35.256C21.9847 34.584 21.1767 33.568 20.7127 32.208L25.7527 30.168C25.7367 30.712 25.8007 31.128 25.9447 31.416C26.0887 31.704 26.2807 31.896 26.5207 31.992C26.7767 32.088 27.0327 32.136 27.2887 32.136C27.5607 32.136 27.8007 32.096 28.0087 32.016C28.2167 31.92 28.3767 31.776 28.4887 31.584C28.6167 31.392 28.6807 31.16 28.6807 30.888C28.6807 30.584 28.6087 30.352 28.4647 30.192C28.3367 30.016 28.1687 29.896 27.9607 29.832C27.7527 29.752 27.5287 29.712 27.2887 29.712C27.0487 29.712 26.8487 29.72 26.6887 29.736C26.5287 29.752 26.3367 29.776 26.1127 29.808V26.592C26.2407 26.608 26.3687 26.624 26.4967 26.64C26.6247 26.64 26.7927 26.64 27.0007 26.64C27.4647 26.64 27.8087 26.536 28.0327 26.328C28.2567 26.12 28.3687 25.776 28.3687 25.296C28.3687 24.896 28.2647 24.584 28.0567 24.36C27.8487 24.136 27.5607 24.024 27.1927 24.024C26.8247 24.024 26.4887 24.16 26.1847 24.432C25.8807 24.688 25.7367 25.208 25.7527 25.992L20.9287 24.504C21.0407 23.48 21.4007 22.632 22.0087 21.96C22.6327 21.288 23.4247 20.784 24.3847 20.448C25.3607 20.096 26.4327 19.92 27.6007 19.92C28.8967 19.92 30.0007 20.096 30.9127 20.448C31.8247 20.784 32.5207 21.288 33.0007 21.96C33.4807 22.632 33.7207 23.456 33.7207 24.432C33.7207 25.184 33.5927 25.8 33.3367 26.28C33.0807 26.744 32.7687 27.104 32.4007 27.36C32.0487 27.616 31.7127 27.792 31.3927 27.888C31.0727 27.984 30.8567 28.032 30.7447 28.032V28.128C30.8567 28.128 31.0807 28.16 31.4167 28.224C31.7687 28.272 32.1447 28.4 32.5447 28.608C32.9447 28.8 33.2887 29.12 33.5767 29.568C33.8647 30.016 34.0087 30.624 34.0087 31.392C34.0087 32.416 33.7207 33.296 33.1447 34.032C32.5847 34.752 31.8247 35.304 30.8647 35.688C29.9207 36.056 28.8727 36.24 27.7207 36.24Z" fill="white"/>
<defs>
<radialGradient id="paint0_radial_4943_1355" cx="0" cy="0" r="1" gradientUnits="userSpaceOnUse" gradientTransform="translate(28 28) rotate(90) scale(28)">
<stop stop-color="#EB8C54"/>
<stop offset="1" stop-color="#EC6350"/>
</radialGradient>
</defs>
</svg>
