<svg width="56" height="56" viewBox="0 0 56 56" fill="none" xmlns="http://www.w3.org/2000/svg">
<circle cx="28" cy="28" r="28" fill="#9E575F"/>
<path d="M21.4584 36V32.64C22.6584 32 23.6984 31.36 24.5784 30.72C25.4744 30.08 26.2104 29.456 26.7864 28.848C27.3784 28.224 27.8184 27.64 28.1064 27.096C28.3944 26.536 28.5384 26.024 28.5384 25.56C28.5384 25.176 28.4424 24.84 28.2504 24.552C28.0584 24.264 27.7224 24.12 27.2424 24.12C26.6984 24.12 26.2984 24.344 26.0424 24.792C25.7864 25.24 25.6744 25.952 25.7064 26.928L20.9304 25.776C20.8984 24.432 21.1784 23.328 21.7704 22.464C22.3624 21.6 23.1704 20.96 24.1944 20.544C25.2344 20.128 26.3784 19.92 27.6264 19.92C28.8264 19.92 29.8344 20.088 30.6504 20.424C31.4824 20.744 32.1464 21.168 32.6424 21.696C33.1384 22.208 33.4904 22.768 33.6984 23.376C33.9224 23.968 34.0344 24.536 34.0344 25.08C34.0344 26.136 33.7544 27.088 33.1944 27.936C32.6504 28.784 31.9144 29.544 30.9864 30.216C30.0584 30.888 29.0264 31.496 27.8904 32.04V32.088C28.2264 32.056 28.5944 32.032 28.9944 32.016C29.4104 31.984 29.8424 31.968 30.2904 31.968C30.7544 31.952 31.2104 31.944 31.6584 31.944H34.1304V36H21.4584Z" fill="white"/>
</svg>
