<svg width="96" height="96" viewBox="0 0 96 96" fill="none" xmlns="http://www.w3.org/2000/svg">
<path d="M92.8524 69.5922V77.1148C92.8524 80.5914 90.034 83.4099 86.5573 83.4099H7.86881C4.39213 83.4099 1.57373 80.5914 1.57373 77.1148V61.3771C1.57373 55.7744 10.4183 50.1876 17.6262 46.5522C22.8989 43.8953 28.7187 42.505 34.6229 42.4918H46.5836C51.0551 42.4889 55.3827 44.0727 58.796 46.9613L73.5737 59.5515C74.8799 60.7003 87.0294 64.4617 89.516 65.1541C91.4724 65.7541 92.8196 67.5461 92.8524 69.5922Z" fill="#FFDCD2"/>
<path d="M92.8524 69.5922V77.1148C92.8524 80.5914 90.034 83.4099 86.5573 83.4099H7.86881C4.39213 83.4099 1.57373 80.5914 1.57373 77.1148V61.3771C1.57373 55.7744 10.4183 50.1876 17.6262 46.5522C22.8989 43.8953 28.7187 42.505 34.6229 42.4918H46.5836C51.0551 42.4889 55.3827 44.0727 58.796 46.9613L73.5737 59.5515C74.8799 60.7003 87.0294 64.4617 89.516 65.1541C91.4724 65.7541 92.8196 67.5461 92.8524 69.5922Z" fill="#FFEAE3"/>
<path d="M92.8525 69.5922V77.1148C92.8525 80.5914 90.0341 83.4099 86.5574 83.4099H81.8361C85.3128 83.4099 88.1312 80.5914 88.1312 77.1148C88.1312 69.7023 88.3043 68.9469 87.722 67.6722C87.1677 66.4239 86.1002 65.4769 84.7948 65.0754C84.7948 65.0754 77.4295 63.0453 69.7338 59.9922C69.0413 59.7246 70.2689 60.6689 53.9961 46.9613C50.6034 44.0901 46.3068 42.5074 41.8623 42.4918L46.5836 42.4918C51.0552 42.4889 55.3828 44.0727 58.7961 46.9613L73.5738 59.5515C74.88 60.7003 87.0295 64.4617 89.5161 65.1541C91.4725 65.7541 92.8196 67.5461 92.8525 69.5922Z" fill="#FFDCD2"/>
<path d="M66.0984 21.2459C66.0984 24.288 63.6323 26.7541 60.5902 26.7541H30.6886C27.244 26.7484 24.3031 24.265 23.7204 20.8701C23.1377 17.4751 25.0823 14.1532 28.328 12.9993H28.5168C28.5098 12.9577 28.5098 12.9151 28.5168 12.8734C30.0575 12.3661 31.7267 12.4107 33.2381 12.9993C34.0408 8.19057 37.7174 4.37014 42.4919 3.38361C45.4221 3.97886 48.016 5.66686 49.747 8.10492C52.2929 7.49786 54.9766 7.97474 57.1575 9.42173C59.3384 10.8687 60.8209 13.156 61.2512 15.7377C64.0327 16.0738 66.1187 18.4443 66.0984 21.2459Z" fill="#F5F5F5"/>
<path d="M18.885 92.8525C24.1 92.8525 28.3276 88.6249 28.3276 83.4098C28.3276 78.1948 24.1 73.9672 18.885 73.9672C13.67 73.9672 9.44238 78.1948 9.44238 83.4098C9.44238 88.6249 13.67 92.8525 18.885 92.8525Z" fill="#FFC7B5"/>
<path d="M18.8853 87.4387C21.1104 87.4387 22.9141 85.6349 22.9141 83.4098C22.9141 81.1848 21.1104 79.381 18.8853 79.381C16.6602 79.381 14.8564 81.1848 14.8564 83.4098C14.8564 85.6349 16.6602 87.4387 18.8853 87.4387Z" fill="#FFEAE3"/>
<path d="M72.3933 92.8525C77.6083 92.8525 81.8359 88.6249 81.8359 83.4098C81.8359 78.1948 77.6083 73.9672 72.3933 73.9672C67.1783 73.9672 62.9507 78.1948 62.9507 83.4098C62.9507 88.6249 67.1783 92.8525 72.3933 92.8525Z" fill="#FFC7B5"/>
<path d="M72.3934 87.3442C74.5663 87.3442 76.3279 85.5827 76.3279 83.4098C76.3279 81.2369 74.5663 79.4754 72.3934 79.4754C70.2205 79.4754 68.459 81.2369 68.459 83.4098C68.459 85.5827 70.2205 87.3442 72.3934 87.3442Z" fill="#FFEAE3"/>
<path d="M92.8525 74.7541L84.6059 72.6924C83.8864 72.5149 83.3883 71.8594 83.4099 71.1187V69.2459C83.4099 68.3767 84.1145 67.6721 84.9836 67.6721H92.4433C93.0256 68.9469 92.8525 69.8282 92.8525 74.7541Z" fill="#FFDCD2"/>
<path d="M1.57373 67.6721H6.29504C7.16421 67.6721 7.86881 68.3767 7.86881 69.2459V72.3934C7.86881 73.2626 7.16421 73.9672 6.29504 73.9672H1.57373V67.6721Z" fill="#FFDCD2"/>
<path d="M33.049 50.5337V59.8032C33.049 60.6724 32.3444 61.377 31.4752 61.377L9.2536 61.4872C8.94663 61.4992 8.66177 61.328 8.5285 61.0512C8.39523 60.7744 8.43896 60.4449 8.63983 60.2124C10.009 58.6386 13.3611 55.7272 20.4431 52.1547C23.8559 50.4628 27.5444 49.3967 31.3336 49.0072C31.7668 48.9679 32.197 49.1097 32.522 49.3989C32.847 49.688 33.0377 50.0989 33.049 50.5337Z" fill="#FFDCD2"/>
<path d="M63.9424 61.377H40.9181C40.0489 61.377 39.3443 60.6724 39.3443 59.8033C39.3443 49.6367 39.2499 50.0931 39.5647 49.5738C39.8441 49.0897 40.3592 48.7902 40.9181 48.7869H46.5837C49.5623 48.7847 52.4452 49.8386 54.7201 51.7613L64.5247 59.9921C64.7879 60.214 64.8763 60.5813 64.7429 60.8987C64.6094 61.2161 64.2851 61.4099 63.9424 61.377Z" fill="#FFDCD2"/>
<path d="M6.29504 77.1147V61.377C6.29504 55.7744 15.1396 50.1875 22.3475 46.5521C27.6202 43.8952 33.44 42.505 39.3442 42.4918C33.3167 42.4918 26.455 42.0826 17.579 46.5521C10.4183 50.1875 1.57373 55.7744 1.57373 61.377V77.1147C1.57373 80.5914 4.39213 83.4098 7.86881 83.4098H9.44258L6.29504 77.1147Z" fill="white"/>
<path d="M48.7868 42.4918C46.4419 42.3659 44.0655 42.4918 41.8779 42.4918H48.7868Z" fill="white"/>
<path d="M8.02623 50.3607L9.8518 52.9102C7.20787 54.8459 3.22623 58.1351 3.14754 61.3771H0C0.141639 56.7816 4.23344 53.1148 8.02623 50.3607Z" fill="white"/>
<path d="M18.8854 78.6885C16.2779 78.6885 14.1641 80.8023 14.1641 83.4099C14.1641 86.0174 16.2779 88.1312 18.8854 88.1312C21.4929 88.1312 23.6067 86.0174 23.6067 83.4099C23.6067 80.8023 21.4929 78.6885 18.8854 78.6885ZM18.8854 84.9836C18.0162 84.9836 17.3116 84.279 17.3116 83.4099C17.3116 82.5407 18.0162 81.8361 18.8854 81.8361C19.7545 81.8361 20.4591 82.5407 20.4591 83.4099C20.4591 84.279 19.7545 84.9836 18.8854 84.9836Z" fill="#514B8F"/>
<path d="M72.3937 78.6885C69.7862 78.6885 67.6724 80.8023 67.6724 83.4099C67.6724 86.0174 69.7862 88.1312 72.3937 88.1312C75.0012 88.1312 77.115 86.0174 77.115 83.4099C77.115 80.8023 75.0012 78.6885 72.3937 78.6885ZM72.3937 84.9836C71.5245 84.9836 70.8199 84.279 70.8199 83.4099C70.8199 82.5407 71.5245 81.8361 72.3937 81.8361C73.2628 81.8361 73.9674 82.5407 73.9674 83.4099C73.9674 84.279 73.2628 84.9836 72.3937 84.9836Z" fill="#514B8F"/>
<path d="M93.8439 66.9954C93.0977 65.3431 91.6753 64.0928 89.941 63.5646C89.941 63.5646 82.56 61.5029 75.0374 58.5285C74.6754 58.3869 75.9974 59.457 59.8033 45.7652C56.109 42.6363 51.4249 40.9188 46.5836 40.918H34.623C27.3836 40.9611 20.2875 42.9389 14.0695 46.6466C11.9827 47.7628 9.96466 49.003 8.02623 50.3607C7.68284 50.6066 7.45271 50.9802 7.3876 51.3975C7.32249 51.8148 7.42785 52.2408 7.68 52.5797C8.19459 53.2604 9.158 53.4071 9.8518 52.9102C11.6965 51.6151 13.6145 50.4275 15.5961 49.3534C21.3487 45.9148 27.921 44.0882 34.623 44.0656H46.5836C50.6801 44.0626 54.6449 45.5125 57.7731 48.1574C73.7941 61.7075 72.8498 61.0623 73.8728 61.4557C79.3967 63.6433 84.779 65.3115 87.3915 66.177H84.9836C83.2453 66.177 81.8361 67.5862 81.8361 69.3246V71.2446C81.8372 72.691 82.824 73.9505 84.2282 74.2977L91.2787 75.9816V77.1147C91.2787 79.7223 89.1649 81.8361 86.5574 81.8361H83.2839C82.4634 76.4554 77.8363 72.4804 72.3934 72.4804C66.9506 72.4804 62.3235 76.4554 61.503 81.8361H29.7757C28.9552 76.4554 24.3281 72.4804 18.8852 72.4804C13.4424 72.4804 8.81529 76.4554 7.99475 81.8361C6.72092 81.87 5.48743 81.3877 4.57459 80.4985C3.66176 79.6094 3.14709 78.389 3.14754 77.1147V75.541H6.29508C8.03342 75.541 9.44262 74.1318 9.44262 72.3934V69.2459C9.44262 67.5076 8.03342 66.0984 6.29508 66.0984H3.14754V61.377C3.14754 60.5079 2.44294 59.8033 1.57377 59.8033C0.704601 59.8033 6.45681e-08 60.5079 6.45681e-08 61.377V77.1147C-0.0002699 79.2237 0.846028 81.2445 2.34907 82.7239C3.85211 84.2032 5.88608 85.0173 7.99475 84.9836C8.32738 87.3697 9.43301 89.5809 11.1423 91.2787H1.57377C0.704601 91.2787 6.45681e-08 91.9833 6.45681e-08 92.8525C6.45681e-08 93.7216 0.704601 94.4262 1.57377 94.4262H92.8525C93.7216 94.4262 94.4262 93.7216 94.4262 92.8525C94.4262 91.9833 93.7216 91.2787 92.8525 91.2787H80.0892C81.7985 89.5809 82.9041 87.3697 83.2367 84.9836H86.5574C90.9032 84.9836 94.4262 81.4606 94.4262 77.1147C94.4262 69.3561 94.5994 68.5534 93.8439 66.9954ZM6.29508 69.2459V72.3934H3.14754V69.2459H6.29508ZM11.0164 83.4098C11.0164 79.064 14.5394 75.541 18.8852 75.541C23.2311 75.541 26.7541 79.064 26.7541 83.4098C26.7541 87.7557 23.2311 91.2787 18.8852 91.2787C16.7983 91.2787 14.7968 90.4496 13.3211 88.9739C11.8454 87.4983 11.0164 85.4968 11.0164 83.4098ZM26.581 91.2787C28.2903 89.5809 29.3959 87.3697 29.7285 84.9836H61.503C61.8356 87.3697 62.9412 89.5809 64.6505 91.2787H26.581ZM72.3934 91.2787C68.0476 91.2787 64.5246 87.7557 64.5246 83.4098C64.5246 79.064 68.0476 75.541 72.3934 75.541C76.7393 75.541 80.2623 79.064 80.2623 83.4098C80.2623 85.4968 79.4333 87.4983 77.9576 88.9739C76.4819 90.4496 74.4804 91.2787 72.3934 91.2787ZM84.9836 71.1659V69.2459H91.2787V72.7397L84.9836 71.1659Z" fill="#514B8F"/>
<path d="M4.20219 57.3482C3.33302 57.3482 2.62842 56.6436 2.62842 55.7745C2.62842 54.9053 3.33302 54.2007 4.20219 54.2007C5.07136 54.2007 5.77596 54.9053 5.77596 55.7745C5.77596 56.6436 5.07136 57.3482 4.20219 57.3482Z" fill="#514B8F"/>
<path d="M55.743 50.5653C53.183 48.3988 49.9373 47.2109 46.5836 47.2131H39.3443C38.4751 47.2131 37.7705 47.9177 37.7705 48.7869V61.3771C37.7705 62.2462 38.4751 62.9508 39.3443 62.9508C67.0899 62.9508 66.6335 63.1712 67.2944 62.4C67.3372 62.3352 67.374 62.2668 67.4046 62.1954C67.5429 62.0264 67.6205 61.8158 67.6249 61.5974C67.6482 61.5258 67.664 61.4519 67.6721 61.3771C67.6721 60.3541 67.499 60.4958 55.743 50.5653ZM40.918 50.3607L46.5836 50.3607C49.1871 50.3585 51.7073 51.2785 53.6971 52.9574L61.802 59.8033H40.918V50.3607Z" fill="#514B8F"/>
<path d="M7.86908 63.0925L33.0494 62.9509C33.9186 62.9509 34.6232 62.2463 34.6232 61.3771V48.7869C34.6232 47.9177 33.9186 47.2131 33.0494 47.2131C28.4481 47.4593 23.9473 48.6541 19.8297 50.7226C10.6232 55.444 6.84613 59.221 6.40548 61.1095C6.28038 61.5729 6.3736 62.0681 6.65864 62.4543C6.94369 62.8405 7.38939 63.0755 7.86908 63.0925ZM21.1674 53.5082C24.4021 51.9188 27.8915 50.912 31.4756 50.5338V59.8033L11.1583 59.9135C14.2099 57.363 17.5732 55.2107 21.1674 53.5082Z" fill="#514B8F"/>
<path d="M40.918 66.0984C40.0488 66.0984 39.3442 66.803 39.3442 67.6722C39.3442 68.5413 40.0488 69.2459 40.918 69.2459H44.0656C44.9347 69.2459 45.6393 68.5413 45.6393 67.6722C45.6393 66.803 44.9347 66.0984 44.0656 66.0984H40.918Z" fill="#514B8F"/>
<path d="M12.5903 18.8853C12.5911 25.4754 15.7662 31.6617 21.1202 35.5043C21.3858 35.6966 21.705 35.8012 22.033 35.8033C22.7134 35.7989 23.3139 35.3578 23.5216 34.7098C23.7292 34.0618 23.4969 33.3538 22.9457 32.9548C18.4171 29.6998 15.7339 24.4624 15.7379 18.8853C15.7379 13.0466 17.0913 9.53707 20.4592 6.73576V9.44264C20.4592 10.3118 21.1638 11.0164 22.033 11.0164C22.9021 11.0164 23.6067 10.3118 23.6067 9.44264V3.14756C23.6067 2.27839 22.9021 1.57379 22.033 1.57379H15.7379C14.8687 1.57379 14.1641 2.27839 14.1641 3.14756C14.1641 4.01673 14.8687 4.72133 15.7379 4.72133H17.9569C14.1641 8.07346 12.5903 12.4171 12.5903 18.8853Z" fill="#514B8F"/>
<path d="M81.8362 18.8853C81.8355 12.2951 78.6603 6.10882 73.3064 2.26626C72.604 1.85026 71.7001 2.0404 71.2248 2.70413C70.7496 3.36786 70.8607 4.28481 71.4808 4.81577C76.0095 8.07076 78.6926 13.3082 78.6887 18.8853C78.6887 24.724 77.3352 28.2335 73.9674 31.0348V28.3279C73.9674 27.4587 73.2628 26.7541 72.3936 26.7541C71.5244 26.7541 70.8198 27.4587 70.8198 28.3279V34.623C70.8198 35.4921 71.5244 36.1968 72.3936 36.1968H78.6887C79.5578 36.1968 80.2624 35.4921 80.2624 34.623C80.2624 33.7538 79.5578 33.0492 78.6887 33.0492H76.4696C80.2624 29.6971 81.8362 25.3535 81.8362 18.8853Z" fill="#514B8F"/>
<path d="M56.3279 5L55.2459 6.47638H54.9508V6.87008L54.6557 7.26378C54.6557 7.26378 54.7541 7.26378 54.9508 7.3622V10.7087C53.7705 9.13386 52.4918 7.85433 50.918 7.06693C49.3443 6.27953 47.6721 5.88582 45.8033 5.88582C42.5574 5.88582 39.7049 7.06693 37.4426 9.42913C35.082 11.7913 34 14.6457 34 17.8937C34 21.2402 35.1803 24.1929 37.4426 26.4567C39.7049 28.8189 42.5574 30 45.8033 30C47.6721 30 49.3443 29.6063 50.8197 28.8189C52.0984 28.2283 53.2787 27.2441 54.3607 26.1614L53.4754 27.9331L55.0492 29.4095H58V6.37795L56.3279 5ZM53.9672 22.815C53.1803 24.1929 52.0984 25.2756 50.623 26.1614C49.1475 26.9488 47.6721 27.3425 46 27.3425C44.4262 27.3425 42.8525 26.9488 41.4754 26.063C40.0984 25.2756 38.918 24.0945 38.1311 22.6181C37.3443 21.1417 36.8525 19.5669 36.8525 17.9921C36.8525 16.3189 37.2459 14.8425 38.1311 13.3661C38.918 11.8898 40.0984 10.8071 41.4754 9.92126C42.8525 9.13386 44.4262 8.74016 46 8.74016C48.5574 8.74016 50.7213 9.62598 52.4918 11.3976C54.2623 13.1693 55.1475 15.4331 55.1475 18.0906C55.1475 19.8622 54.7541 21.437 53.9672 22.815ZM54.5574 25.9646C54.6557 25.8661 54.8525 25.6693 54.9508 25.5709V26.3583L54.5574 25.9646Z" fill="#F2642E"/>
<path d="M56 4.50813V28.2886H53.037V24.2236C51.7531 25.748 50.3704 26.9675 48.8889 27.7805C47.3086 28.5935 45.6296 29 43.8519 29C40.5926 29 37.8272 27.7805 35.4568 25.3415C33.1852 22.8008 32 19.8537 32 16.3984C32 12.9431 33.1852 10.0976 35.4568 7.65854C37.8272 5.21951 40.5926 4 43.8519 4C45.7284 4 47.5062 4.4065 48.9877 5.21951C50.5679 6.03252 51.8519 7.25203 53.037 8.97967V4.60975L56 4.50813ZM44.1481 6.84553C42.4691 6.84553 40.9877 7.25203 39.6049 8.06504C38.2222 8.87805 37.1358 10.0976 36.2469 11.622C35.4568 13.1463 34.963 14.7724 34.963 16.5C34.963 18.126 35.358 19.752 36.2469 21.2764C37.037 22.8008 38.2222 24.0203 39.6049 24.8333C40.9877 25.6463 42.4691 26.1545 44.1481 26.1545C45.7284 26.1545 47.3086 25.748 48.7901 24.935C50.2716 24.122 51.358 22.9024 52.1481 21.4797C52.9383 20.0569 53.3333 18.4309 53.3333 16.6016C53.3333 13.8577 52.4444 11.5203 50.6667 9.69106C48.8889 7.76016 46.716 6.84553 44.1481 6.84553Z" fill="#504B8B"/>
</svg>
